<svg xmlns="http://www.w3.org/2000/svg" viewBox="0 0 292.53 254.59"><defs><style>.cls-1{fill:#231f20;}.cls-2{fill:#fff;}</style></defs><title>Asset 6</title><g id="Layer_2" data-name="Layer 2"><g id="Layer_1-2" data-name="Layer 1"><path class="cls-1" d="M292.19,39c.28,8.72.7,17.47-.28,26.17A23.15,23.15,0,0,1,286,77.85l-4,4.78c-8.26,8.42-16.52,16.83-24.66,25.36-3.51,3.68-6.11,7.64-5.46,13.35.88,7.63-2.88,13.54-8.11,18.9-12.15,12.42-24.26,24.83-35.85,37.75-11.19,12.47-23,24.34-33.92,37.09-7,8.13-15.06,15.28-22,23.41-8.62,10-14.28,8-24.82,3.51-2.33-1-3.36-5.12-6.47-3.64-2.42,1.15-4.22,3.65-6.24,5.61-.62.61-1,1.5-1.58,2.11-3.93,3.91-7.6,9.67-13.74,8.3-8.09-1.82-17.32-2.54-22-11.38-1.11-2.08-2.48-1.83-3.89-.39a40.62,40.62,0,0,0-3,3.29c-4.06,5-9.71,6.92-15.91,4.88-4.5-1.48-8.83-3.47-13.28-5.09s-7.53-4.54-8.68-9.38a3.25,3.25,0,0,0-3.34-2.46c-7.3.41-13.36-3.56-20-5.48A11.64,11.64,0,0,1,.29,217.72a117.2,117.2,0,0,1,0-16.55,15.54,15.54,0,0,1,4-9.56q8.19-9.08,16.48-18l37.38-40.35L82.55,107a2,2,0,0,0,.37-.54l2-4.58c.47-1.46-1.21-1.63-2.35-1.93-5.88-1.54-11.27-8.32-11-14.38.28-6.59-.9-13.31,1.66-19.72.18-.47,1.91-3.11,2.26-3.65l25.34-27.57c5-5,8.68-11.49,15.67-14.41a17.36,17.36,0,0,1,6.85-1.38c17.8,0,35.59-.2,53.38.1,6.6.1,11.22-2.45,15.2-7.39C194.77,8,197.64,4.44,201.69,2a13.37,13.37,0,0,1,12.18-1c17.62,6.51,35.29,12.84,53,19.22,5.14,1.85,10.37,3.44,15.44,5.44C288.31,28,292,32.39,292.19,39Zm-7.65,2.37c.11-4.4-1.86-6.92-5.91-8.25-5.22-1.71-10.4-3.53-15.56-5.39-16.75-6.05-33.49-12-50.18-18.26-4-1.47-7.08-1.14-10,2.18-3.21,3.69-6.7,7.14-10.09,10.68A15.36,15.36,0,0,1,181,27.48c-9.36-.15-18.72,0-28.08,0s-18.7.1-28.06-.05c-6-.1-10.25,2.46-14.17,6.83-8.47,9.41-16,19.65-25.32,28.31C77.94,69.45,79,78.26,79.87,86.7c.61,6,7.27,5.06,11.19,7.29.52.28,1.11.43,1.64.68,2.66,1.23,4.73.65,6.72-1.56,5.13-5.75,10.43-11.38,15.69-17S125.43,65,130.65,59.56c1-1,2.28-2.43,3.78-1.17s.85,2.94-.23,4.34c-.27.35-.59.67-.9,1q-13,14-26.08,28Q84,116.6,60.71,141.46C46.15,157.1,32.05,173.16,17,188.32c-7.46,7.52-11.82,15.17-10.29,26,.51,3.55,1.7,5.91,5,7.1,3.48,1.27,7.07,2.26,10.54,3.56,5.91,2.23,10.57.42,12.31-5.76,1.56-5.58,4.94-9.65,8.71-13.7C55.89,192,68.39,178.31,81,164.72c4.41-4.77,8.88-9.47,13.38-14.15,1.16-1.2,2.76-2.38,4.22-.79s.37,3.19-1,4.2c-3,2.24-4.84,5.51-7.34,8.19-15.17,16.07-30.18,32.4-45.4,48.55a19.07,19.07,0,0,0-5.52,14c.1,12.41.21,11.82,11.88,16.59,7.27,3,12,1.81,16.39-4.25,3-4.2,8.78-6.69,10.17-11.47,2.77-9.57,9.85-15.69,15.92-22.54,10.74-12.15,22.1-23.76,33.2-35.6.91-1,1.77-2,2.76-2.9,1.28-1.16,3-3.06,4.45-1.9,1.84,1.49-.15,3.45-.93,5.12a3.25,3.25,0,0,1-.84,1c-6.38,6-12,12.63-17.93,19Q101.1,202.11,87.72,216.4a13.08,13.08,0,0,0-3.82,7.87c-.3,4.43-.2,8.9-.12,13.35a5.1,5.1,0,0,0,3.42,4.79c2.88,1.19,5.82,2.24,8.71,3.37,3.11,1.2,5.7.74,8-1.84,5.48-6,11.07-12,16.64-17.94a13.13,13.13,0,0,0,3.37-6.16c.91-3.93,3.3-6.9,6.16-9.59,2-1.93,3.84-4.08,5.71-6.15,9.06-10,18.36-19.78,27.59-29.62,1-1,2.22-1.82,3.49-.72s.76,2.51.06,3.69a14.69,14.69,0,0,1-2.05,2.33c-10.59,11.4-21,23-31.87,34.14-4.87,5-5.32,10.62-4.89,16.82A5.37,5.37,0,0,0,131,235c6.47,4,10.13,3.61,15.28-1.84,11.92-12.63,23.71-25.36,35.53-38.06q28.17-30.3,56.36-60.56c4.07-4.33,6.53-8.92,6.22-15.08-.35-6.81-.22-13.65,0-20.48.06-2.26-1.2-6.16,2.2-6.23s2,3.86,2.47,6.11c.27,1.23-.49,2.95,1,3.62,1.77.81,2.62-1,3.56-2,9-9.66,17.87-19.41,26.93-29a13.43,13.43,0,0,0,3.92-9.58c0-6.84-.12-13.67.06-20.5Z"/><path class="cls-2" d="M278.63,33.16c4.05,1.33,6,3.85,5.91,8.25-.2,6.83-.08,13.66-.13,20.5a13.43,13.43,0,0,1-3.92,9.58c-9.06,9.6-17.94,19.35-26.93,29-.94,1-1.79,2.8-3.56,2-1.44-.67-.68-2.39-1-3.62-.48-2.25,1-6.19-2.47-6.11s-2.14,4-2.2,6.23c-.19,6.83-.32,13.67,0,20.48.31,6.16-2.15,10.75-6.22,15.08q-28.19,30.18-56.28,60.56c-11.82,12.7-23.61,25.43-35.53,38.06-5.15,5.45-8.81,5.79-15.28,1.84a5.34,5.34,0,0,1-2.87-4.29c-.43-6.2,0-11.84,4.89-16.82,10.88-11.13,21.28-22.74,31.87-34.14a14.69,14.69,0,0,0,2.05-2.33c.7-1.18,1.13-2.65-.06-3.69s-2.52-.3-3.49.72c-9.23,9.84-18.53,19.62-27.59,29.62-1.87,2.07-3.67,4.22-5.71,6.15-2.86,2.69-5.25,5.66-6.16,9.59a13.13,13.13,0,0,1-3.37,6.16c-5.57,6-11.16,11.9-16.64,17.94-2.33,2.58-4.92,3-8,1.84-2.89-1.13-5.83-2.18-8.71-3.37a5.1,5.1,0,0,1-3.42-4.79c-.08-4.45-.18-8.92.12-13.35a13,13,0,0,1,3.79-7.85q13.35-14.28,26.67-28.6c5.93-6.38,11.55-13.06,17.93-19a3.25,3.25,0,0,0,.84-1c.78-1.67,2.77-3.63.93-5.12-1.43-1.16-3.17.74-4.45,1.9-1,.88-1.85,1.93-2.76,2.9-11.1,11.84-22.46,23.45-33.2,35.6-6.07,6.85-13.15,13-15.92,22.54-1.39,4.78-7.16,7.27-10.17,11.47-4.36,6.06-9.12,7.21-16.39,4.25-11.68-4.81-11.78-4.22-11.88-16.62a19.07,19.07,0,0,1,5.52-14c15.22-16.14,30.23-32.47,45.38-48.67,2.5-2.68,4.31-6,7.34-8.19,1.38-1,2.4-2.68,1-4.2s-3.06-.41-4.22.79c-4.5,4.68-9,9.38-13.38,14.15-12.59,13.59-25.09,27.25-37.7,40.8-3.74,4-7.14,8.11-8.74,13.69-1.74,6.18-6.4,8-12.31,5.76-3.47-1.3-7.06-2.29-10.54-3.56-3.25-1.19-4.44-3.55-5-7.1C5.14,203.41,9.5,195.76,17,188.24,32,173.08,46.1,157,60.66,141.38q23.22-24.9,46.51-49.73,13.08-14,26.08-28c.31-.33.63-.65.9-1,1.08-1.4,1.8-3,.23-4.34s-2.8.14-3.78,1.17c-5.22,5.48-10.38,11-15.54,16.55S104.5,87.31,99.37,93c-2,2.21-4.06,2.79-6.72,1.56-.53-.25-1.12-.4-1.64-.68-3.92-2.23-10.58-1.28-11.19-7.29-.87-8.44-1.93-17.25,5.45-24.13,9.28-8.66,16.85-18.9,25.32-28.31,3.92-4.37,8.21-6.93,14.17-6.83,9.36.15,18.72,0,28.06,0s18.72-.1,28.08,0a15.36,15.36,0,0,0,11.85-5.11c3.39-3.54,6.88-7,10.09-10.68,2.88-3.32,6-3.65,10-2.18,16.69,6.19,33.43,12.2,50.18,18.26C268.23,29.63,273.41,31.45,278.63,33.16Z"/></g></g></svg>