<svg xmlns="http://www.w3.org/2000/svg" viewBox="0 0 269.03 265.46"><defs><style>.cls-1{fill:#231f20;}.cls-2{fill:#fff;}</style></defs><title>Asset 8</title><g id="Layer_2" data-name="Layer 2"><g id="Layer_1-2" data-name="Layer 1"><path class="cls-1" d="M269,73.39q.14,13.94-.56,27.89c-.25,5.17-3.1,9.32-6.58,13.1-11.35,12.35-22.58,24.8-33.9,37.17a13.25,13.25,0,0,0-3.88,10.39c.66,9-2.9,16-9.16,22.69-9.76,10.43-20.08,20.43-29.16,31.42a243.66,243.66,0,0,1-18.94,20.41l-19.47,20.88c-3.45,6.49-9.69,9.62-16.69,7.42-10-3.15-19.82-6.8-29.66-10.36-17.14-6.19-34.24-12.49-51.35-18.73-6.93-2.53-9.64-8-9.57-14.8,0-4.75-.78-8.49-4.35-11.92-3.42-3.27-4-7.92-3.66-12.54.43-6.95.24-13.47-6.27-18.28-2.71-2-2.81-5.88-2.82-9.27,0-5.5-.16-11,0-16.5.1-3-.83-5.34-3.23-6.78-3.65-2.19-5.17-5.52-5.73-9.41-.49-3.43-2.38-5.42-5.42-6.89C3.2,126.66.44,122.12.2,116.13c-.12-3.16.16-6.35-.1-9.49C-.63,98.07,2.65,91,8.3,85,19,73.52,30.45,62.69,40.5,50.6c6.66-8,14.71-11.88,25.56-11.52,20,.67,40,0,60,.33,8.45.15,14-3.36,18.55-10.12,6.43-9.54,15-17.38,23.28-25.15C173.58-1.18,182-.06,189.44.49a117.71,117.71,0,0,0,13.93.08c6.28-.3,11,3.22,15.1,7.55,1.94,2.06,3.65,4.34,6.25,5.65C230.4,22,237.89,28.6,244.46,36c6.6,7.65,13.16,15.34,19.82,22.94C268,63.14,269,68.22,269,73.39Zm-16.35,39c6.48-6.22,9.08-13.08,8.42-21.8-.43-5.8-.11-11.66-.13-17.49,0-3.23-.46-6.32-2.71-8.86-5.25-5.93-10.4-11.95-15.78-17.76-7.55-8.15-15.67-15.82-22.8-24.32C213,14.25,206.25,8,194.91,9.86a46.43,46.43,0,0,1-10,.05c-8.64-.5-16.16,1.2-20.62,9.62-.29.55-1,.87-1.46,1.34a196.81,196.81,0,0,0-15.7,17.58c-.83,1.08-2.42,2.29-1.6,3.92s2.63,1,4.07,1.14c2.59.3,6.91-1.32,6.85,2.65-.06,3.6-4.36,2.58-7,2.59-14.82.1-29.65,0-44.47,0v-.07c-14.49,0-29,.14-43.47-.07-5.21-.08-9.25,1.44-12.8,5.34q-18,19.73-36.35,39.15a15.26,15.26,0,0,0-4.1,10.4c-.13,3.49,0,7,0,10.49a8.23,8.23,0,0,0,2.11,6c1.29,1.32,2.77,2.77,4.74,2s1.59-2.71,1.6-4.36v-9.5c0-4.09.71-8.22,3.43-11.26C27.43,88.78,35,80.85,42.64,73c2.64-2.7,6.2-3,9.81-1.78,15.62,5.23,31,11.24,46.27,17.31,1.6.63,4.43,1.32,3.36,3.9-1,2.4-3.24,1.39-5.2.67C82,87.69,67.15,82.33,52.29,76.92c-2.7-1-5.13-1-7.4,1.11-7.1,6.51-13.31,13.85-19.59,21.11a14.3,14.3,0,0,0-3.37,9.72c.08,7.49.11,15-.12,22.49-.14,4.72,1.91,7.49,6.24,9Q47.34,147.13,66.6,154q25.14,9,50.27,18.07c2.12.76,4.44,2,3.31,4.56-1,2.29-3.3,1.37-5.27.65Q75.49,163,36.06,148.71c-3.44-1.25-5.15-.4-5.15,3.34,0,5.17.12,10.33,0,15.49-.13,4.56,2.13,6.9,6.24,8.4,26.64,9.72,53.66,18.4,79.91,29.22,1.86.76,3.76,1.19,3.07,3.5s-2.83,1.92-4.61,1.28c-4.39-1.56-8.74-3.25-13.12-4.83-19.11-6.88-38.24-13.69-57.32-20.63-3.38-1.23-5.08-.73-5,3.22.08,3,0,6-.11,9-.13,4.42,1.92,7.19,6.1,8.62q13.23,4.49,26.4,9.16,21.65,7.67,43.24,15.47c2,.74,5.28,1.33,4.14,4.44s-4,1.33-6,.65c-5.36-1.79-10.64-3.82-16-5.74C83.13,224,68.4,218.72,53.7,213.3c-3.37-1.23-4.57-.06-4.77,3.27-.45,7.26.52,9,7.41,11.54,24.56,8.87,49.18,17.59,73.72,26.55,4.3,1.57,7.44.46,10.31-2.58Q147,245,153.65,237.85q29-31.32,58-62.62a14.09,14.09,0,0,0,3.91-10.34q-.15-13.24-.15-26.49c0-2.55-.74-6.34,2.94-6.31,3.92,0,2.36,4,2.63,6.36.2,1.72-.92,4.13,1.19,4.89s3-1.71,4.19-3c8.73-9.29,17.09-19.07,26.3-27.93Z"/><path class="cls-2" d="M261.07,90.53c.66,8.72-1.94,15.58-8.42,21.8-9.21,8.86-17.53,18.64-26.3,28-1.18,1.26-2.14,3.7-4.19,3s-1-3.17-1.19-4.89c-.27-2.41,1.29-6.33-2.63-6.36-3.68,0-2.94,3.76-2.94,6.31q0,13.26.15,26.49a14.09,14.09,0,0,1-3.89,10.41q-29.1,31.22-58,62.62-6.61,7.14-13.28,14.23c-2.87,3-6,4.15-10.31,2.58-24.54-9-49.16-17.68-73.72-26.55-6.89-2.49-7.86-4.28-7.41-11.54.2-3.33,1.4-4.5,4.77-3.27,14.7,5.37,29.43,10.64,44.15,16,5.32,1.92,10.6,3.95,16,5.74,2,.68,4.87,2.54,6-.65s-2.12-3.7-4.14-4.44q-21.59-7.83-43.24-15.47-13.17-4.66-26.4-9.16c-4.18-1.43-6.23-4.2-6.1-8.62.08-3,.19-6,.11-9-.1-4,1.6-4.45,5-3.22,19.08,6.94,38.21,13.75,57.32,20.63,4.38,1.58,8.73,3.27,13.12,4.83,1.78.64,3.9,1.07,4.61-1.28s-1.21-2.74-3.07-3.5C90.82,194.4,63.8,185.72,37.16,176c-4.11-1.5-6.37-3.84-6.24-8.4.14-5.16,0-10.32,0-15.49,0-3.74,1.71-4.59,5.15-3.34q39.4,14.37,78.85,28.59c2,.72,4.27,1.64,5.27-.65,1.13-2.59-1.19-3.8-3.31-4.56q-25.12-9.06-50.27-18.07-19.26-6.89-38.55-13.67c-4.33-1.52-6.38-4.29-6.24-9,.23-7.5.2-15,.12-22.49a14.34,14.34,0,0,1,3.37-9.72C31.59,91.94,37.8,84.6,44.9,78.09,47.17,76,49.6,76,52.3,77,67.16,82.39,82,87.75,96.89,93.2c2,.72,4.21,1.73,5.2-.67,1.07-2.58-1.76-3.27-3.36-3.9C83.42,82.56,68.08,76.55,52.46,71.32c-3.61-1.21-7.17-.92-9.81,1.78C35,80.91,27.44,88.84,20.15,97c-2.72,3-3.41,7.17-3.43,11.26v9.5c0,1.65.31,3.65-1.6,4.36s-3.45-.72-4.74-2a8.2,8.2,0,0,1-2.11-6c0-3.5-.12-7,0-10.49a15.23,15.23,0,0,1,4.1-10.4Q30.68,73.77,48.72,54.06c3.55-3.9,7.59-5.42,12.8-5.34,14.49.21,29,.07,43.47.07v.07c14.82,0,29.65,0,44.47,0,2.63,0,6.93,1,7-2.59.06-4-4.26-2.35-6.85-2.65-1.44-.17-3.26.48-4.07-1.14s.77-2.84,1.6-3.92a196.65,196.65,0,0,1,15.69-17.7c.46-.47,1.17-.79,1.46-1.34,4.46-8.42,12-10.12,20.62-9.62a45.8,45.8,0,0,0,10,0c11.34-1.87,18.13,4.39,24.75,12.3,7.13,8.5,15.25,16.17,22.8,24.32,5.38,5.81,10.53,11.83,15.78,17.76,2.25,2.54,2.7,5.63,2.71,8.86C261,78.87,260.63,84.73,261.07,90.53Z"/></g></g></svg>