<svg xmlns="http://www.w3.org/2000/svg" viewBox="0 0 851.06 798.36"><defs><style>.cls-1,.cls-10,.cls-11,.cls-12,.cls-13,.cls-14,.cls-15{fill:#231f20;}.cls-2,.cls-3,.cls-5,.cls-7{fill:#fff;}.cls-3,.cls-4,.cls-5,.cls-6,.cls-7,.cls-8{stroke:#231f20;stroke-miterlimit:10;}.cls-3{stroke-width:12px;}.cls-4,.cls-5{stroke-width:4px;}.cls-6,.cls-7{stroke-width:2px;}.cls-8{fill:none;stroke-width:6px;}.cls-10,.cls-11,.cls-12,.cls-13,.cls-14,.cls-15,.cls-9{isolation:isolate;}.cls-10,.cls-11{font-size:23.63px;}.cls-10,.cls-11,.cls-12,.cls-13,.cls-14,.cls-15{font-family:GillSans-UltraBold, Gill Sans Ultra Bold;}.cls-11{letter-spacing:0.02em;}.cls-12,.cls-13,.cls-14{font-size:28.12px;}.cls-12{letter-spacing:-0.02em;}.cls-14{letter-spacing:-0.05em;}.cls-15{font-size:27.44px;}</style></defs><title>Asset 1</title><g id="Layer_2" data-name="Layer 2"><g id="Layer_1-2" data-name="Layer 1"><path class="cls-1" d="M850.73,42.11c.28,8.72.7,17.47-.28,26.17a23.29,23.29,0,0,1-5.9,12.64l-4,4.78c-8.26,8.42-16.52,16.83-24.66,25.36-3.51,3.68-6.11,7.64-5.46,13.35.88,7.63-2.88,13.54-8.11,18.9-12.15,12.42-24.26,24.83-35.85,37.75-11.19,12.47-23,24.34-33.92,37.09-7,8.13-15.06,15.28-22,23.41-8.62,10-14.28,8-24.82,3.51-2.33-1-3.36-5.12-6.47-3.64-2.42,1.15-4.22,3.65-6.24,5.61-.62.61-1,1.5-1.58,2.11-3.93,3.91-7.6,9.67-13.74,8.3-8.09-1.82-17.32-2.54-22-11.38-1.11-2.08-2.48-1.83-3.89-.39a37.25,37.25,0,0,0-3,3.29c-4.06,5-9.71,6.92-15.91,4.88-4.5-1.48-8.83-3.47-13.28-5.09s-7.53-4.54-8.68-9.38a3.25,3.25,0,0,0-3.34-2.46c-7.3.41-13.36-3.56-20-5.48a11.63,11.63,0,0,1-8.77-10.65,117.2,117.2,0,0,1,0-16.55,15.46,15.46,0,0,1,4-9.56q8.17-9.08,16.48-18l37.38-40.35,24.4-26.23a2.25,2.25,0,0,0,.37-.54l2-4.58c.47-1.46-1.21-1.63-2.35-1.93-5.88-1.54-11.27-8.32-11-14.38.28-6.59-.9-13.31,1.66-19.72.18-.47,1.91-3.11,2.26-3.65l25.34-27.57c5-5,8.68-11.49,15.67-14.41a17.29,17.29,0,0,1,6.85-1.38c17.8,0,35.59-.2,53.38.1,6.6.1,11.22-2.45,15.2-7.39,2.84-3.54,5.71-7.14,9.76-9.56a13.33,13.33,0,0,1,12.18-1c17.62,6.51,35.29,12.84,53,19.22,5.14,1.85,10.37,3.44,15.44,5.44C846.85,31,850.53,35.46,850.73,42.11Zm-7.65,2.37c.11-4.4-1.86-6.92-5.91-8.25-5.22-1.71-10.4-3.53-15.56-5.39-16.75-6.05-33.49-12-50.18-18.26-4-1.47-7.08-1.14-10,2.18-3.21,3.69-6.7,7.14-10.09,10.68a15.37,15.37,0,0,1-11.85,5.11c-9.36-.15-18.72,0-28.08,0s-18.7.1-28.06-.05c-6-.1-10.25,2.46-14.17,6.83-8.47,9.41-16,19.65-25.32,28.31-7.38,6.88-6.32,15.69-5.45,24.13.61,6,7.27,5.06,11.19,7.29.52.28,1.11.43,1.64.68,2.66,1.23,4.73.65,6.72-1.56,5.13-5.75,10.43-11.38,15.69-17S684,68.11,689.19,62.63c1-1,2.28-2.43,3.78-1.17s.85,2.94-.23,4.34c-.27.35-.59.67-.9,1q-13,14-26.08,28l-46.51,49.73c-14.56,15.64-28.66,31.7-43.7,46.86-7.46,7.52-11.82,15.17-10.29,26,.51,3.55,1.7,5.91,5,7.1,3.48,1.27,7.07,2.26,10.54,3.56,5.91,2.23,10.57.42,12.31-5.76,1.56-5.58,4.94-9.65,8.71-13.7,12.61-13.55,25.11-27.21,37.7-40.8,4.41-4.77,8.88-9.47,13.38-14.15,1.16-1.2,2.76-2.38,4.22-.79s.37,3.19-1,4.2c-3,2.24-4.84,5.51-7.34,8.19-15.17,16.07-30.18,32.4-45.4,48.55a19,19,0,0,0-5.52,14c.1,12.41.21,11.82,11.88,16.59,7.27,3,12,1.81,16.39-4.25,3-4.2,8.78-6.69,10.17-11.47,2.77-9.57,9.85-15.69,15.92-22.54,10.74-12.15,22.1-23.76,33.2-35.6.91-1,1.77-2,2.76-2.9,1.28-1.16,3-3.06,4.45-1.9,1.84,1.49-.15,3.45-.93,5.12a3.67,3.67,0,0,1-.84,1c-6.38,6-12,12.63-17.93,19q-13.3,14.34-26.67,28.63a12.92,12.92,0,0,0-3.82,7.87c-.3,4.43-.2,8.9-.12,13.35a5.07,5.07,0,0,0,3.42,4.79c2.88,1.19,5.82,2.24,8.71,3.37,3.11,1.2,5.7.74,8-1.84,5.48-6,11.07-12,16.64-17.94a13.21,13.21,0,0,0,3.37-6.16c.91-3.93,3.3-6.9,6.16-9.59,2-1.93,3.84-4.08,5.71-6.15,9.06-10,18.36-19.78,27.59-29.62,1-1,2.22-1.82,3.49-.72s.76,2.51.06,3.69a16.85,16.85,0,0,1-2.05,2.33c-10.59,11.4-21,23-31.87,34.14-4.87,5-5.32,10.62-4.89,16.82a5.33,5.33,0,0,0,2.87,4.27c6.47,3.95,10.13,3.61,15.28-1.84,11.92-12.63,23.71-25.36,35.53-38.06q28.17-30.3,56.36-60.56c4.07-4.33,6.53-8.92,6.22-15.08-.35-6.81-.22-13.65,0-20.48.06-2.26-1.2-6.16,2.2-6.23s2,3.86,2.47,6.11c.27,1.23-.49,3,1,3.62,1.77.81,2.62-1,3.56-2,9-9.66,17.87-19.41,26.93-29A13.47,13.47,0,0,0,843,65c0-6.84-.12-13.67.06-20.5Z"/><path class="cls-2" d="M837.17,36.23c4.05,1.33,6,3.85,5.91,8.25-.2,6.83-.08,13.66-.13,20.5A13.47,13.47,0,0,1,839,74.56c-9.06,9.6-17.94,19.35-26.93,29-.94,1-1.79,2.8-3.56,2-1.44-.67-.68-2.39-1-3.62-.48-2.25,1-6.19-2.47-6.11s-2.14,4-2.2,6.23c-.19,6.83-.32,13.67,0,20.48.31,6.16-2.15,10.75-6.22,15.08q-28.2,30.16-56.28,60.56c-11.82,12.7-23.61,25.43-35.53,38.06-5.15,5.45-8.81,5.79-15.28,1.84a5.34,5.34,0,0,1-2.87-4.29c-.43-6.2,0-11.84,4.89-16.82,10.88-11.13,21.28-22.74,31.87-34.14a16.85,16.85,0,0,0,2-2.33c.7-1.18,1.13-2.65-.06-3.69s-2.52-.3-3.49.72c-9.23,9.84-18.53,19.62-27.59,29.62-1.87,2.07-3.67,4.22-5.71,6.15-2.86,2.69-5.25,5.66-6.16,9.59a13.21,13.21,0,0,1-3.37,6.16c-5.57,6-11.16,11.9-16.64,17.94-2.33,2.58-4.92,3-8,1.84-2.89-1.13-5.83-2.18-8.71-3.37a5.07,5.07,0,0,1-3.42-4.79c-.08-4.45-.18-8.92.12-13.35a13,13,0,0,1,3.79-7.85q13.35-14.29,26.67-28.6c5.93-6.38,11.55-13.06,17.93-19a3.67,3.67,0,0,0,.84-1c.78-1.67,2.77-3.63.93-5.12-1.43-1.16-3.17.74-4.45,1.9-1,.88-1.85,1.93-2.76,2.9-11.1,11.84-22.46,23.45-33.2,35.6-6.07,6.85-13.15,13-15.92,22.54-1.39,4.78-7.16,7.27-10.17,11.47-4.36,6.06-9.12,7.21-16.39,4.25-11.68-4.81-11.78-4.22-11.88-16.62a19,19,0,0,1,5.52-14c15.22-16.14,30.23-32.47,45.38-48.67,2.5-2.68,4.31-6,7.34-8.19,1.38-1,2.4-2.68,1-4.2s-3.06-.41-4.22.79c-4.5,4.68-9,9.38-13.38,14.15-12.59,13.59-25.09,27.25-37.7,40.8-3.74,4-7.14,8.11-8.74,13.69-1.74,6.18-6.4,8-12.31,5.76-3.47-1.3-7.06-2.29-10.54-3.56-3.25-1.19-4.44-3.55-5-7.1-1.53-10.78,2.83-18.43,10.29-25.95,15-15.16,29.14-31.22,43.7-46.86q23.2-24.91,46.51-49.73,13.06-14,26.08-28c.31-.33.63-.65.9-1,1.08-1.4,1.8-3,.23-4.34s-2.8.14-3.78,1.17c-5.22,5.48-10.38,11-15.54,16.55S663,90.38,657.91,96.1c-2,2.21-4.06,2.79-6.72,1.56-.53-.25-1.12-.4-1.64-.68-3.92-2.23-10.58-1.28-11.19-7.29-.87-8.44-1.93-17.25,5.45-24.13,9.28-8.66,16.85-18.9,25.32-28.31,3.92-4.37,8.21-6.93,14.17-6.83,9.36.15,18.72,0,28.06,0s18.72-.1,28.08,0a15.37,15.37,0,0,0,11.85-5.11c3.39-3.54,6.88-7,10.09-10.68,2.88-3.32,6-3.65,10-2.18,16.69,6.19,33.43,12.2,50.18,18.26C826.77,32.7,832,34.52,837.17,36.23Z"/><circle class="cls-3" cx="537.9" cy="309" r="56.69"/><path class="cls-4" d="M500.48,337.35l.3-2.06a41.54,41.54,0,0,1,2.14-7.8c1.92-5.35,4.27-10.51,6.6-15.69,2.73-6.09,5.54-12.16,7.8-18.45a52.93,52.93,0,0,0,2.49-8.92c.08-.45-.07-.48-.42-.49-3.41-.07-6.81-.17-10.22-.2a2.33,2.33,0,0,1-2.29-1.41,6.69,6.69,0,0,1,.69-7,7.46,7.46,0,0,1,5.13-2.95l1.43-.22h2.06a3.19,3.19,0,0,0,.63.09l6.6.13,10.71.2,19.59.34,9.09.12c2.2,0,4.4.06,6.6.11a9.37,9.37,0,0,1,2.42.16,6.8,6.8,0,0,1,4.94,4.94c.17.67.28,1.36.42,2v1.62c-.1.69-.19,1.38-.3,2.06a41.27,41.27,0,0,1-2.47,8.37c-2.24,5.7-5,11.15-7.79,16.63-3,6-6.06,11.9-8.55,18.11-.7,1.76-1.31,3.55-2,5.41,1.07.08,2,.17,3,.23,2.08.15,4.16.27,6.25.44a12.6,12.6,0,0,1,2.86.37,5.8,5.8,0,0,1,3.91,5.63,11.27,11.27,0,0,1-8.36,10.74c-.46.11-.94.18-1.41.27h-1.4a6.85,6.85,0,0,1-.79-.13l-5-.52-3.87-.36-4.13-.4-3.92-.37-4-.39-3.92-.36-4.08-.4-3.92-.36c-1.36-.13-2.71-.27-4.07-.39l-3.92-.37-4.08-.39-3.92-.37c-1.71-.16-3.43-.36-5.15-.49a5.54,5.54,0,0,1-5.31-4.24c-.14-.57-.22-1.15-.33-1.73Zm56.23,10.88a16.72,16.72,0,0,1-1.38-1.53,9,9,0,0,1-1-1.72,12.64,12.64,0,0,1-.82-6.63,32.8,32.8,0,0,1,1.65-7.31,102.51,102.51,0,0,1,5.74-13.64c2.75-5.62,5.58-11.2,8.33-16.81a91.14,91.14,0,0,0,5.2-12.41,23.86,23.86,0,0,0,1.33-7.39,5.88,5.88,0,0,0-3.9-6,2.54,2.54,0,0,0-2.34.09,26.09,26.09,0,0,0-2.25,1.58,1.68,1.68,0,0,0-.3.4h3.08a1.49,1.49,0,0,1,.85.35,6.11,6.11,0,0,1,1.83,3.93,3.33,3.33,0,0,1-1.31,3.1,4.87,4.87,0,0,1-3.14,1c-9-.21-18-.46-27.07-.69l-18.36-.44h-1.56c-.1.53-.18,1-.28,1.52a60.24,60.24,0,0,1-3.61,11.43c-2.89,6.81-5.9,13.58-8.86,20.37a109.79,109.79,0,0,0-5.62,14.67,19,19,0,0,0-.93,7.41,4.16,4.16,0,0,0,3.75,3.93c2.76.29,5.53.53,8.29.78l7.22.69,8.73.83,7.43.71,8.52.81,7.43.71Zm10.45-73.69h-.28l-10.45-.2-22.14-.4c-6.46-.12-12.92-.26-19.38-.35a8.38,8.38,0,0,0-4.72,1.16,5.57,5.57,0,0,0-2.26,6.58c.33.86.53,1,1.41,1l23.49.56,31.73.75H565C563.48,279.79,564,277.57,567.16,274.54ZM554.92,341.7a7.32,7.32,0,0,0,1.37,3.9,6.78,6.78,0,0,0,5.6,3.1c5-.07,9.43-5.31,8.78-10.24a4.2,4.2,0,0,0-2.75-3.59,5.46,5.46,0,0,0-3.86.06,2.83,2.83,0,0,0-2,2.25,5.12,5.12,0,0,0,.7,3.94c.25.39.52.77.85,1.26Zm.87-7.85a23.16,23.16,0,0,0-.93,6.41l6.1.48c-.67-2.4-.69-4.59,1.28-6.46ZM568,278.22h-1.62a.52.52,0,0,0-.4.23,4.66,4.66,0,0,0,.16,4.12,2.17,2.17,0,0,0,1.54,1.22,4,4,0,0,0,2.41-.38,2,2,0,0,0,1.21-2.3,12.72,12.72,0,0,0-.8-2.16,1.06,1.06,0,0,0-1.2-.69A11.22,11.22,0,0,1,568,278.22Z"/><path class="cls-5" d="M556.71,348.23l-3.35-.3-7.43-.71-8.52-.81L530,345.7l-8.73-.83-7.22-.69c-2.76-.25-5.53-.49-8.29-.78a4.16,4.16,0,0,1-3.75-3.93,19,19,0,0,1,.93-7.41,109.79,109.79,0,0,1,5.62-14.67c3-6.79,6-13.56,8.86-20.37a59.68,59.68,0,0,0,3.66-11.43c.1-.49.18-1,.28-1.52h1.56l18.36.44c9,.23,18,.48,27.07.69a4.87,4.87,0,0,0,3.14-1,3.33,3.33,0,0,0,1.31-3.1,6.11,6.11,0,0,0-1.83-3.93,1.49,1.49,0,0,0-.89-.38H567a1.68,1.68,0,0,1,.3-.4c.74-.54,1.47-1.09,2.25-1.58a2.55,2.55,0,0,1,2.33,0c2.56,1,3.88,3,3.9,6a23.66,23.66,0,0,1-1.34,7.41,91.14,91.14,0,0,1-5.2,12.41c-2.75,5.61-5.58,11.19-8.33,16.81a102.51,102.51,0,0,0-5.74,13.64,32.8,32.8,0,0,0-1.65,7.31,12.64,12.64,0,0,0,.82,6.63,9,9,0,0,0,1,1.72A16.46,16.46,0,0,0,556.71,348.23Z"/><path class="cls-5" d="M567.16,274.54c-3.16,3-3.68,5.27-2.13,9.07h-.47l-31.73-.75-23.49-.56c-.88,0-1.08-.17-1.41-1a5.57,5.57,0,0,1,2.26-6.58,8.38,8.38,0,0,1,4.72-1.16c6.46.09,12.92.23,19.38.35l22.14.4,10.45.2Z"/><path class="cls-5" d="M554.92,341.7l8.72.68c-.33-.49-.6-.87-.85-1.26a5.12,5.12,0,0,1-.7-3.94,2.83,2.83,0,0,1,2-2.25,5.46,5.46,0,0,1,3.86-.06,4.2,4.2,0,0,1,2.75,3.59c.65,4.93-3.81,10.17-8.78,10.24a6.78,6.78,0,0,1-5.6-3.1A7.33,7.33,0,0,1,554.92,341.7Z"/><path class="cls-5" d="M555.79,333.85l6.45.43c-2,1.87-2,4.06-1.28,6.46l-6.1-.48A23.16,23.16,0,0,1,555.79,333.85Z"/><path class="cls-5" d="M568,278.22a9.4,9.4,0,0,0,1.3,0,1.06,1.06,0,0,1,1.2.69,12.72,12.72,0,0,1,.8,2.16,2,2,0,0,1-1.21,2.3,4,4,0,0,1-2.41.38,2.18,2.18,0,0,1-1.54-1.18,4.66,4.66,0,0,1-.16-4.12.52.52,0,0,1,.4-.23Z"/><path class="cls-1" d="M559,606.29q.13,13.94-.56,27.89c-.25,5.17-3.1,9.32-6.58,13.1-11.35,12.35-22.58,24.8-33.9,37.17a13.18,13.18,0,0,0-3.88,10.39c.66,9-2.9,16-9.16,22.69C495.14,728,484.82,738,475.74,749a245.35,245.35,0,0,1-18.94,20.41l-19.47,20.88c-3.45,6.49-9.69,9.62-16.69,7.42-10-3.15-19.82-6.8-29.66-10.36-17.14-6.19-34.24-12.49-51.35-18.73-6.93-2.53-9.64-8-9.57-14.8.05-4.75-.78-8.49-4.35-11.92-3.42-3.27-4-7.92-3.66-12.54.43-6.95.24-13.47-6.27-18.28-2.71-2-2.81-5.88-2.82-9.27,0-5.5-.16-11,0-16.5.1-3-.83-5.34-3.23-6.78-3.65-2.19-5.17-5.52-5.73-9.41-.49-3.43-2.38-5.42-5.42-6.89-5.41-2.62-8.17-7.16-8.41-13.15-.12-3.16.16-6.35-.1-9.49-.73-8.57,2.55-15.61,8.2-21.65,10.73-11.47,22.15-22.3,32.2-34.39,6.66-8,14.71-11.88,25.56-11.52,20,.67,40,0,60,.33,8.45.15,14-3.36,18.55-10.12,6.43-9.54,15-17.38,23.28-25.15,5.69-5.32,14.08-4.2,21.55-3.65a117.69,117.69,0,0,0,13.93.08c6.28-.3,11,3.22,15.1,7.55,1.94,2.06,3.65,4.34,6.25,5.65,5.68,8.22,13.17,14.83,19.74,22.26,6.6,7.65,13.16,15.34,19.82,22.94C558,596,558.93,601.12,559,606.29Zm-16.35,39c6.48-6.22,9.08-13.08,8.42-21.8-.43-5.8-.11-11.66-.13-17.49,0-3.23-.46-6.32-2.71-8.86-5.25-5.93-10.4-11.95-15.78-17.76-7.55-8.15-15.67-15.82-22.8-24.32-6.62-7.91-13.41-14.17-24.75-12.3a45.8,45.8,0,0,1-10,0c-8.64-.5-16.16,1.2-20.62,9.62-.29.55-1,.87-1.46,1.34a195.27,195.27,0,0,0-15.7,17.58c-.83,1.08-2.42,2.29-1.6,3.92s2.63,1,4.07,1.14c2.59.3,6.91-1.32,6.85,2.65-.06,3.6-4.36,2.58-7,2.59-14.82.1-29.65.05-44.47.05v-.07c-14.49,0-29,.14-43.47-.07-5.21-.08-9.25,1.44-12.8,5.34q-18,19.73-36.35,39.15a15.21,15.21,0,0,0-4.1,10.4c-.13,3.49,0,7,0,10.49a8.13,8.13,0,0,0,2.11,6c1.29,1.32,2.77,2.77,4.74,2s1.59-2.71,1.6-4.36v-9.5c0-4.09.71-8.22,3.43-11.26,7.29-8.14,14.84-16.07,22.5-23.88,2.64-2.7,6.2-3,9.81-1.78,15.62,5.23,31,11.24,46.27,17.31,1.6.63,4.43,1.32,3.36,3.9-1,2.4-3.24,1.39-5.2.67-14.85-5.45-29.73-10.81-44.59-16.22-2.7-1-5.13-1-7.4,1.11-7.1,6.51-13.31,13.85-19.59,21.11a14.32,14.32,0,0,0-3.37,9.72c.08,7.49.11,15-.12,22.49-.14,4.72,1.91,7.49,6.24,9q19.29,6.78,38.55,13.67,25.14,9,50.27,18.07c2.12.76,4.44,2,3.31,4.56-1,2.29-3.3,1.37-5.27.65Q365.46,695.89,326,681.61c-3.44-1.25-5.15-.4-5.15,3.34,0,5.17.12,10.33,0,15.49-.13,4.56,2.13,6.9,6.24,8.4,26.64,9.72,53.66,18.4,79.91,29.22,1.86.76,3.76,1.19,3.07,3.5s-2.83,1.92-4.61,1.28c-4.39-1.56-8.74-3.25-13.12-4.83-19.11-6.88-38.24-13.69-57.32-20.63-3.38-1.23-5.08-.73-5,3.22.08,3,0,6-.11,9-.13,4.42,1.92,7.19,6.1,8.62q13.23,4.49,26.4,9.16,21.65,7.67,43.24,15.47c2,.74,5.28,1.33,4.14,4.44s-4,1.33-6,.65c-5.36-1.79-10.64-3.82-16-5.74-14.72-5.31-29.45-10.58-44.15-16-3.37-1.23-4.57-.06-4.77,3.27-.45,7.26.52,9,7.41,11.54,24.56,8.87,49.18,17.59,73.72,26.55,4.3,1.57,7.44.46,10.31-2.58q6.68-7.08,13.28-14.23,29-31.32,58-62.62a14.15,14.15,0,0,0,3.91-10.34q-.15-13.24-.15-26.49c0-2.55-.74-6.34,2.94-6.31,3.92,0,2.36,4,2.63,6.36.2,1.72-.92,4.13,1.19,4.89s3-1.71,4.19-3c8.73-9.29,17.09-19.07,26.3-27.93Z"/><path class="cls-2" d="M551.06,623.51c.66,8.72-1.94,15.58-8.42,21.8-9.21,8.86-17.53,18.64-26.3,28-1.18,1.26-2.14,3.7-4.19,3s-1-3.17-1.19-4.89c-.27-2.41,1.29-6.33-2.63-6.36-3.68,0-2.94,3.76-2.94,6.31q0,13.25.15,26.49a14.13,14.13,0,0,1-3.89,10.41q-29.1,31.22-58,62.62Q437,778,430.37,785.12c-2.87,3-6,4.15-10.31,2.58-24.54-9-49.16-17.68-73.72-26.55-6.89-2.49-7.86-4.28-7.41-11.54.2-3.33,1.4-4.5,4.77-3.27,14.7,5.37,29.43,10.64,44.15,16,5.32,1.92,10.6,3.95,16,5.74,2,.68,4.87,2.54,6-.65s-2.12-3.7-4.14-4.44q-21.58-7.83-43.24-15.47-13.17-4.66-26.4-9.16c-4.18-1.43-6.23-4.2-6.1-8.62.08-3,.19-6,.11-9-.1-4,1.6-4.45,5-3.22,19.08,6.94,38.21,13.75,57.32,20.63,4.38,1.58,8.73,3.27,13.12,4.83,1.78.64,3.9,1.07,4.61-1.28s-1.21-2.74-3.07-3.5c-26.25-10.82-53.27-19.5-79.91-29.22-4.11-1.5-6.37-3.84-6.24-8.4.14-5.16,0-10.32,0-15.49,0-3.74,1.71-4.59,5.15-3.34q39.39,14.36,78.85,28.59c2,.72,4.27,1.64,5.27-.65,1.13-2.59-1.19-3.8-3.31-4.56q-25.12-9.06-50.27-18.07-19.26-6.88-38.55-13.67c-4.33-1.52-6.38-4.29-6.24-9,.23-7.5.2-15,.12-22.49a14.32,14.32,0,0,1,3.37-9.72c6.28-7.26,12.49-14.6,19.59-21.11,2.27-2.08,4.7-2.09,7.4-1.11,14.86,5.41,29.74,10.77,44.59,16.22,2,.72,4.21,1.73,5.2-.67,1.07-2.58-1.76-3.27-3.36-3.9-15.31-6.07-30.65-12.08-46.27-17.31-3.61-1.21-7.17-.92-9.81,1.78-7.66,7.81-15.21,15.74-22.5,23.88-2.72,3-3.41,7.17-3.43,11.26v9.5c0,1.65.31,3.65-1.6,4.36s-3.45-.72-4.74-2a8.13,8.13,0,0,1-2.11-6c0-3.5-.12-7,0-10.49a15.21,15.21,0,0,1,4.1-10.4q18.31-19.44,36.35-39.15c3.55-3.9,7.59-5.42,12.8-5.34,14.49.21,29,.07,43.47.07v.07c14.82,0,29.65,0,44.47-.05,2.63,0,6.93,1,7-2.59.06-4-4.26-2.35-6.85-2.65-1.44-.17-3.26.48-4.07-1.14s.77-2.84,1.6-3.92a195.11,195.11,0,0,1,15.69-17.7c.46-.47,1.17-.79,1.46-1.34,4.46-8.42,12-10.12,20.62-9.62a45.8,45.8,0,0,0,10-.05c11.34-1.87,18.13,4.39,24.75,12.3,7.13,8.5,15.25,16.17,22.8,24.32,5.38,5.81,10.53,11.83,15.78,17.76,2.25,2.54,2.7,5.63,2.71,8.86C550.94,611.85,550.62,617.71,551.06,623.51Z"/><circle class="cls-3" cx="424.51" cy="457.02" r="56.69"/><path d="M465.48,471.69v3.22c.51,8.44-2.69,14.23-10.45,17.37-7.25,3-14.74,5.32-22.15,7.87a4.13,4.13,0,0,1-2.53.06c-12.2-4.14-24.36-8.4-36.57-12.52-3.71-1.25-4.53-3.69-4.48-7.4.15-11.5,0-23-.26-34.5,0-2.65-.86-5.29-1.39-7.93-1.11-5.53,1.46-9.24,7.15-12.4,3.6-2,7.82-2.85,11.74-4.25,1.81-.64,3.94-1,5.29-2.15a17,17,0,0,1,15.17-4.2c7.72,1.37,15.59,1.89,23.29,3.36s8.51,3.43,9.42,9.45c1.28,8.49,2.93,16.93,4.16,25.43.88,6.15,1.33,12.38,2,18.57ZM433.27,497c4.8-1.83,8.92-3.28,12.92-5,.69-.31,1-1.88,1.16-2.92.44-3.17.32-6.47,1.12-9.53,1.25-4.76,3.31-9.31,4.59-14.07a43.84,43.84,0,0,0,1.25-9.74c.11-3.2-.8-6.47-.43-9.62.75-6.37-1.74-11.75-4.35-17.17-1-2.15-2.65-2.78-4.64-1.14-3.5,2.86-7,5.7-10.34,8.75a5.51,5.51,0,0,0-1.56,3.63q-.37,22.14-.45,44.28c0,3.91.44,7.86.73,12.53ZM401.42,431l-.3.82a64.27,64.27,0,0,0-7.08.69c-1.45.29-3.35.92-4,2-.46.81.59,2.77,1.39,3.92,2.75,4,6.14,7.56,8.45,11.75,5.91,10.71,6.61,8.4-1.21,19.1-.54.74-1.38,1.77-1.21,2.45,1.25,5,2.55,10,4.24,14.88.35,1,2.34,1.71,3.69,1.94.51.1,1.41-1.45,2-2.34,1.09-1.72,1.72-3.91,3.17-5.18,3.54-3.12,4.54-7.1,5-11.46a22.57,22.57,0,0,1,.65-3.15c1.36-5.85,3-11.66,4-17.57.8-4.44-.24-9.46-3.7-11.81C412.14,434.12,406.51,433,401.42,431Zm29,65.9c-.15-12.34-.4-23.95-.37-35.56,0-6.45.46-12.9.73-19.35.07-1.7.11-3.42-2.14-3.62-2.85-.26-5.71-.35-9-.53.55,2,1.16,3.72,1.46,5.48.39,2.29,1,4.71.67,6.93-.83,5.07-2.16,10.07-3.37,15.07A73.86,73.86,0,0,0,416.94,491a3.08,3.08,0,0,0,1.45,2.27c4,1.37,8.08,2.54,12,3.69ZM456,423.5c-.46,4.29-.84,7.73-1.16,11.18a12.9,12.9,0,0,0,.14,2.24c.53,7.45,1.11,14.89,1.56,22.35a8.27,8.27,0,0,1-.73,3.46c-2.6,6.2-3.63,12.29.52,18.31.58.84.58,2.07,1,3.06a12.1,12.1,0,0,0,1.16,2c4.12-2.21,4.81-5.41,4.37-9.44-1.63-15-3-30-4.61-45-.33-2.59-1.42-5.11-2.28-8.16Zm-63.29,5.91.39,1a26.72,26.72,0,0,0,3.47-.21c5.24-.79,10.13.22,15.16,1.9a141.55,141.55,0,0,0,17.8,4.17c1.74.36,6.57-3.7,5.91-4.42a18.76,18.76,0,0,0-5.14-3.24c-.59-.31-1.51.09-2.23-.06-3-.64-6.36-.73-8.91-2.19-6.66-3.83-13.32-2.7-20-.81-2.35.64-4.34,2.53-6.48,3.86Zm-.73,12.1-.86.3c.16,1.77.39,3.54.47,5.31.28,6,.36,12,.86,18,.13,1.54,1.56,3,2.39,4.44,1.28-.73,2.81-1.22,3.78-2.25a28.75,28.75,0,0,0,3.69-5.26,4.17,4.17,0,0,0,.6-3c-2.51-6.53-6.72-12.05-11-17.54Zm59.69-20.36c-6.24-3.8-18.93-3.66-23.57-.33l1.53,6c2.25.56,4.63.72,6.54,1.76s3.11.55,4.58-.58a62.18,62.18,0,0,1,5.29-3.66c1.67-1.06,3.45-2,5.6-3.19Zm-38.18,1.08a21.46,21.46,0,0,0,2.71,1.57c2.68,1.08,5.38,2.14,8.14,3a2.35,2.35,0,0,0,2.15-.66,3.38,3.38,0,0,0,.27-2.66c-2.73-6-8.86-6.69-13.3-1.25Zm-19.76,48.19-1.17.38q-.33,4.44-.68,8.88c-.33,4.44,1.82,6.33,7,5.63-1.61-5.09-1.67-10.62-5.18-14.89Zm59,5.81-1.81.13c-.59,3.77-1.3,7.53-1.73,11.31-.17,1.47,0,3.4,2.36,2.84,1.94-.48,5.08-.44,4.58-3.4-.68-3.72-2.28-7.26-3.46-10.88Zm-38.13,15.56V479.65l-1-.22c-.91,1.14-1.86,2.24-2.71,3.41C407,488.33,407.85,490.55,414.63,491.79Zm34.7-67,4.3,5.46,1.1-.58a48,48,0,0,0-2-5.42C452.68,424.05,451.06,424.53,449.33,424.79Z"/><path class="cls-2" d="M433.27,497c-.29-4.67-.75-8.62-.73-12.57q.06-22.14.45-44.28a5.51,5.51,0,0,1,1.56-3.63c3.32-3,6.84-5.89,10.34-8.75,2-1.64,3.61-1,4.64,1.14,2.61,5.42,5.1,10.8,4.35,17.17-.37,3.15.54,6.42.43,9.62a43.84,43.84,0,0,1-1.25,9.74c-1.28,4.76-3.34,9.31-4.59,14.07-.8,3.06-.68,6.36-1.12,9.53-.14,1-.47,2.61-1.16,2.92C442.19,493.69,438.06,495.14,433.27,497Z"/><path class="cls-2" d="M401.42,431c5.09,1.93,10.72,3.08,15.11,6,3.46,2.35,4.5,7.37,3.7,11.81-1.07,5.91-2.68,11.72-4,17.57a22.57,22.57,0,0,0-.65,3.15c-.41,4.36-1.41,8.34-5,11.46-1.45,1.27-2.08,3.46-3.17,5.18-.58.89-1.48,2.44-2,2.34-1.35-.23-3.34-.94-3.69-1.94-1.69-4.87-3-9.87-4.24-14.88-.17-.68.67-1.71,1.21-2.45,7.82-10.7,7.12-8.39,1.21-19.1-2.31-4.19-5.7-7.78-8.45-11.75-.8-1.15-1.85-3.11-1.39-3.92.61-1.09,2.51-1.72,4-2a64.27,64.27,0,0,1,7.08-.69Z"/><path class="cls-2" d="M430.39,496.94c-3.92-1.18-8-2.32-12-3.69a3.08,3.08,0,0,1-1.45-2.27,73.86,73.86,0,0,1,1.46-25.62c1.21-5,2.54-10,3.37-15.07.36-2.22-.28-4.64-.67-6.93-.3-1.76-.91-3.47-1.46-5.48,3.26.18,6.12.27,9,.53,2.25.2,2.21,1.92,2.14,3.62-.27,6.45-.72,12.9-.73,19.35C430,473,430.24,484.6,430.39,496.94Z"/><path class="cls-2" d="M456,423.5c.86,3,1.95,5.57,2.23,8.17,1.63,15,3,30,4.61,45,.44,4-.25,7.23-4.37,9.44a12.1,12.1,0,0,1-1.16-2c-.4-1-.4-2.22-1-3.06-4.15-6-3.12-12.11-.52-18.31a8.27,8.27,0,0,0,.73-3.46c-.45-7.46-1-14.9-1.56-22.35a12.9,12.9,0,0,1-.14-2.24C455.16,431.23,455.54,427.79,456,423.5Z"/><path class="cls-2" d="M392.71,429.41c2.14-1.33,4.13-3.22,6.46-3.89,6.67-1.89,13.33-3,20,.81,2.55,1.46,5.91,1.55,8.91,2.19.72.15,1.64-.25,2.23.06a18.76,18.76,0,0,1,5.14,3.24c.66.72-4.17,4.78-5.91,4.42-6-1.2-12-2.24-17.8-4.17-5-1.68-9.92-2.69-15.16-1.9-1.14.17-2.31.15-3.47.21Z"/><path class="cls-2" d="M392,441.51c4.24,5.49,8.45,11,10.93,17.59a4.17,4.17,0,0,1-.6,3,28.75,28.75,0,0,1-3.69,5.26,17.26,17.26,0,0,1-3.78,2.25c-.83-1.48-2.26-2.9-2.39-4.44-.5-6-.58-12-.86-18-.08-1.77-.31-3.54-.47-5.31Z"/><path class="cls-2" d="M451.67,421.15c-2.15,1.21-3.93,2.13-5.63,3.19a62.18,62.18,0,0,0-5.29,3.66c-1.47,1.13-2.63,1.64-4.58.58s-4.29-1.2-6.54-1.76l-1.53-6C432.74,417.49,445.43,417.35,451.67,421.15Z"/><path class="cls-2" d="M413.49,422.23c4.44-5.46,10.56-4.76,13.27,1.27a3.38,3.38,0,0,1-.27,2.66,2.35,2.35,0,0,1-2.15.66c-2.76-.88-5.46-1.94-8.14-3A22.88,22.88,0,0,1,413.49,422.23Z"/><path class="cls-2" d="M393.73,470.42c3.51,4.27,3.57,9.8,5.11,14.89-5.14.7-7.29-1.19-7-5.63q.33-4.44.68-8.88Z"/><path class="cls-2" d="M452.7,476.23c1.18,3.62,2.78,7.16,3.4,10.88.5,3-2.64,2.92-4.58,3.4-2.31.56-2.53-1.37-2.36-2.84.43-3.78,1.14-7.54,1.73-11.31Z"/><path class="cls-2" d="M414.63,491.79c-6.78-1.25-7.66-3.47-3.66-9,.85-1.17,1.8-2.27,2.71-3.41l1,.22Z"/><path class="cls-2" d="M449.33,424.79c1.72-.29,3.35-.77,3.45-.54a48,48,0,0,1,2,5.42l-1.1.58Z"/><path class="cls-1" d="M319.31,110.41c1,10.48-2.94,18.59-10,26-10.81,11.23-20.14,23.84-31.8,34.3a8.76,8.76,0,0,0-3.21,7.56c1.36,11.27-3.34,19.53-11.14,27.37C248.87,220,235.5,235.27,221.54,250c-8.62,9.1-16.62,18.77-25.53,27.63-5.45,5.43-11.25,6.48-18.16,4-14.19-5.2-28.43-10.29-42.59-15.58-3.63-1.35-6.26-.76-8.88,2.11-12.66,13.88-25.44,27.66-38.19,41.46-6.56,7.1-11.17,8.12-20.43,4.69-3.89-1.45-7.84-2.76-11.73-4.22-6.82-2.55-10.7-8.48-10.91-15.72a126.18,126.18,0,0,1,1-18.33,16.4,16.4,0,0,1,4.38-9.44l4.18-4.42c9.88-10.19,19.6-20.54,29.38-30.83,1.1-1.15,2.08-2.47.94-3.94-4.44-5.67-3.24-12.28-3.28-18.68,0-6.57-2.08-8-8.32-5.77-9.34,3.38-18.64,6.9-28,10.2-6.07,2.14-12.15,4.26-18.77,1.66-5.09-2-10.37-3.54-15.55-5.37-5.89-2.07-10.88-9-11-15.29S0,181.83.08,175.68c.13-7.84,4.06-13.4,11.44-16.1,19-6.93,38.07-13.77,57.11-20.68,4.17-1.51,9.68-2,12.12-5,2.7-3.28.93-9,.94-13.59a24.1,24.1,0,0,1,7.9-18l11.61-13c4.65-5.13,9.52-10.06,14.31-15.06q6.69-7,13.44-14a3,3,0,0,1,1.62-.9c16-3.13,32.1-1,48.14-1.44a13.66,13.66,0,0,0,10.16-4.21c8-8.22,17.28-15.48,23.73-24.75,7.46-10.73,17-10.28,28-10,3.25.07,6.72-.22,10.09-.13,7,.17,12.9,1.95,17.85,7l41.93,46.37a24.52,24.52,0,0,1,8.75,20.35A136.62,136.62,0,0,0,319.31,110.41Zm-8.67-14.86c1.39-6.46-.21-11.15-4-15.29q-21.78-23.43-43.39-47c-2.7-2.93-5.9-5-10-5-8-.07-16,.1-24,.17-2.4,0-4.85.45-6.5,2.17q-13.16,13.67-26,27.6c-1.7,1.83-1.16,3.41,1.51,3.72a31.43,31.43,0,0,0,3.5,0c2.14.06,5-.25,5,2.67s-3,2.48-5,2.49c-10.33,0-20.66,0-31,0V67c-10,0-20,.12-30-.06a13.24,13.24,0,0,0-10.62,4.47c-10.08,10.85-19.77,22.12-30.5,32.28-7.87,7.45-10,15.88-9.24,26,.31,4.18,1.85,4.93,5.29,3.69,3.6-1.3,7.15-2.76,10.76-4q16.92-6,33.9-11.9c7.14-2.49,8.27-4,8.22-11.58v-6.5c0-1.94.47-4,2.77-4,2,0,2.29,2.15,2.35,3.81.1,2.83,0,5.66,0,8.5,0,8.08-2.23,11.41-9.94,14.15-20.53,7.3-41.1,14.48-61.62,21.8C62.39,150.67,42.7,158,23,165c-17.36,6.18-13.83,5.6-14,19.5-.16,14.33,0,14.14,13.72,19.18,6.84,2.51,13.14,3.22,20.28.5,19.58-7.48,39.41-14.31,59.15-21.36,9.88-3.53,19.74-7.13,29.71-10.36,3.67-1.19,7.81-1.56,10.24,2.6,2.24,3.82-.21,6.68-2.6,9.3q-10.72,11.83-21.59,23.45Q88.25,239.58,58.6,271.3c-2.38,2.54-4.12,5.33-4.3,8.76-.26,4.82-.21,9.65-.13,14.48.06,3.29,1.93,5.45,5.55,6.32a43.59,43.59,0,0,1,10,3.71c4.86,2.52,8.7,2.62,12.25-1.26,9.77-10.69,19.72-21.22,29.57-31.84l52-56c1.77-1.9,3.77-5.83,6.64-3.2s-.92,4.93-2.66,6.85c-5.13,5.66-10.14,11.41-15.9,16.49-4.4,3.88-3.91,5.84,1.33,7.88,4.81,1.88,9.68,3.58,14.52,5.37,1.8.67,3.74,1.63,3,3.86-.86,2.58-3.13,1.91-5.07,1.24-5.34-1.86-10.91-3.27-15.92-5.79-5.22-2.62-8.69-1.42-12.17,2.7s-3.26,5.51,1.82,7.31c13.65,4.82,27.41,9.34,40.93,14.51,4.93,1.89,8.08.85,11.43-2.75q34.29-36.83,68.84-73.42c4.44-4.67,6-9.69,5.25-16.25-.8-7.38-.39-14.8.2-22.21.21-2.62-1.67-7.52,2.76-7.6s2.51,4.48,2.93,7.16c.22,1.43-.52,3.49.93,4.09,1.84.76,2.78-1.36,3.85-2.5,10.23-11,20.38-22,30.64-32.9,3.85-4.1,4.89-9,3.8-15.06A40.66,40.66,0,0,1,310.64,95.55ZM134.36,182.26c1-1.06,2.37-2.28,1.24-3.87s-2.65-.65-4-.13c-8.42,3.07-16.79,6.29-25.3,9.11-12.68,4.2-16.06,8.76-15.64,22.22v7.48A5.34,5.34,0,0,0,94,222.22c2.18.93,3.69-.56,5.09-2.07q8.49-9.12,17-18.18c1-1,1.84-2.06,1.71-3.45-.32-3.54,1-5.37,4.73-5.18,1.22.07,2.13-.81,3-1.67C128.41,188.53,131.43,185.44,134.36,182.26Z"/><path class="cls-2" d="M306.59,80.26c3.84,4.14,5.44,8.83,4,15.29a40.81,40.81,0,0,0,0,15.73c1.09,6.07.05,11-3.8,15.06-10.26,10.93-20.41,22-30.64,32.9-1.07,1.14-2,3.26-3.85,2.5-1.45-.6-.71-2.66-.93-4.09-.42-2.68,1.46-7.24-2.93-7.16s-2.55,5-2.76,7.6c-.59,7.41-1,14.83-.2,22.21.7,6.56-.81,11.58-5.25,16.25Q225.57,233,191.39,270c-3.35,3.6-6.5,4.64-11.43,2.75-13.52-5.17-27.28-9.69-40.93-14.51-5.08-1.8-5.27-3.24-1.82-7.31s7-5.32,12.17-2.7c5,2.52,10.58,3.93,15.92,5.79,1.94.67,4.21,1.34,5.07-1.24.74-2.23-1.2-3.19-3-3.86-4.84-1.79-9.71-3.49-14.52-5.37-5.24-2-5.73-4-1.33-7.88,5.76-5.08,10.77-10.83,15.9-16.49,1.74-1.92,5.56-4.18,2.66-6.85s-4.87,1.3-6.64,3.2q-26,27.94-52,56c-9.85,10.62-19.8,21.15-29.57,31.84-3.55,3.88-7.39,3.78-12.25,1.26a43.59,43.59,0,0,0-10-3.71c-3.62-.87-5.49-3-5.55-6.32-.08-4.83-.13-9.66.13-14.48.18-3.43,1.92-6.22,4.3-8.76q29.7-31.69,59.26-63.51,10.86-11.67,21.61-23.43c2.39-2.62,4.84-5.48,2.6-9.3-2.43-4.16-6.57-3.79-10.24-2.6-10,3.23-19.83,6.83-29.71,10.36-19.74,7-39.57,13.88-59.15,21.36-7.14,2.72-13.44,2-20.28-.5-13.69-5-13.88-4.85-13.72-19.18.16-13.9-3.37-13.32,14-19.5,19.75-7,39.44-14.26,59.18-21.31,20.52-7.32,41.09-14.5,61.62-21.8,7.71-2.74,10-6.07,9.94-14.15,0-2.84.07-5.67,0-8.5-.06-1.66-.3-3.78-2.35-3.81-2.3,0-2.74,2-2.77,4V106c0,7.55-1.08,9.09-8.22,11.58q-17,5.91-33.9,11.9c-3.61,1.28-7.16,2.74-10.76,4-3.44,1.24-5,.49-5.29-3.69-.74-10.15,1.37-18.58,9.24-26,10.73-10.16,20.42-21.43,30.5-32.28A13.24,13.24,0,0,1,140.68,67c10,.18,20,.06,30,.06v.07h31c2,0,5,.53,5-2.49s-2.87-2.61-5-2.67c-1.17,0-2.35.1-3.5,0-2.67-.31-3.21-1.89-1.51-3.72q12.9-13.92,26-27.6c1.65-1.72,4.1-2.15,6.5-2.17,8-.07,16-.24,24-.17,4,0,7.25,2.1,10,5Q284.86,56.79,306.59,80.26Z"/><path class="cls-2" d="M135.6,178.39c1.13,1.59-.25,2.81-1.24,3.87-2.93,3.18-6,6.27-8.92,9.41-.82.86-1.73,1.74-3,1.67-3.75-.19-5,1.64-4.73,5.18.13,1.39-.75,2.45-1.71,3.45q-8.55,9-17,18.18c-1.4,1.51-2.91,3-5.09,2.07a5.34,5.34,0,0,1-3.32-5.15v-7.48c-.42-13.46,3-18,15.64-22.22,8.51-2.82,16.88-6,25.3-9.11C133,177.79,134.48,176.79,135.6,178.39Z"/><circle class="cls-3" cx="311.13" cy="299.46" r="56.69"/><path class="cls-6" d="M334.74,259.79a6.84,6.84,0,0,0,5.58,1.87,6.6,6.6,0,0,0,.87-.15c1-.22,1.23-.19,1.62.78a7.76,7.76,0,0,1-.19,6.9,13.49,13.49,0,0,1-3.87,4.19c-3.21,2.39-6.53,4.66-9.56,7.27a68.86,68.86,0,0,0-6.28,6.62c-1.42,1.59-2.7,3.32-4.07,5-.47.56-1,1-1.66,1.65.08.48.17,1.16.31,1.83a.59.59,0,0,0,.33.41c.68.21,1.3.63,2.06-.07a5.48,5.48,0,0,1,2-.81c2.2-.71,4.42-1.33,6.6-2.09,4.6-1.6,8.36-4.51,11.86-7.81a5.37,5.37,0,0,0,1.52-4.58,1.26,1.26,0,0,1,.63-1.29,7,7,0,0,1,3.94-1.28,1,1,0,0,1,1,.59,46,46,0,0,1,4.1,12.41,3.64,3.64,0,0,0,.16.63V295c-.12.52-.22,1-.35,1.56-1.38,5.29-5.51,8.75-11.53,7.63-2.53-.46-5-1.16-7.54-1.71a11,11,0,0,0-2.61-.34c-3.12.07-6.25-.11-9.33.53-1.1.22-1.29.13-1.84-.42l-7.37,4a2.55,2.55,0,0,0-.4.32Q295.6,319,280.52,331.44a9.24,9.24,0,0,1-3.35,2h-.88a.92.92,0,0,1,.18-.69q5.91-7,11.9-14l.46-.57-.11-.11-18.19,8.57V325c8.8-6.13,17.57-12.29,26.41-18.35a38.07,38.07,0,0,0,7.31-6.34c2.09-2.39,4.31-4.66,6.48-7a.82.82,0,0,0,.26-1,1.45,1.45,0,0,1,.26-1.16,8.65,8.65,0,0,0,1.85-4.89c.21-2,.29-4.06.43-6.09.08-1.28.11-2.56.25-3.82a5.75,5.75,0,0,1,2-3.92c1.76-1.52,3.5-3.1,5.37-4.48,3.36-2.49,6.79-4.88,10.25-7.23a11.91,11.91,0,0,1,2.73-1Zm-15.59,42.39a6.46,6.46,0,0,0,1.07-.06,41.9,41.9,0,0,1,8.67-.54,20,20,0,0,1,4,.47c1.28.23,2.53.62,3.79.93a19.36,19.36,0,0,0,6.38.81,7.23,7.23,0,0,0,3.8-1.28,10.74,10.74,0,0,0,4.34-10.16,39.29,39.29,0,0,0-4.14-13.25.92.92,0,0,0-.73-.41,26.55,26.55,0,0,0-3.08.89,1.27,1.27,0,0,0-.87,1.5,5.46,5.46,0,0,1-1.74,4.67c-3.76,3.52-7.84,6.57-12.83,8.16-1.87.6-3.76,1.15-5.63,1.74a16.58,16.58,0,0,0-1.87.67,1,1,0,0,0-.54.62C319.53,298.64,319.36,300.35,319.15,302.18ZM314,280.34a27.87,27.87,0,0,1-.64,7.62,7.34,7.34,0,0,1-1.46,3.27,3.35,3.35,0,0,0-.41,1,7.29,7.29,0,0,0,.94.28c1.24.16,2.51.21,3.73.46a2.14,2.14,0,0,0,2.3-1c2.51-3,5-6.08,7.61-9a31.82,31.82,0,0,1,4.2-3.92c2.72-2.13,5.56-4.13,8.35-6.18a12.76,12.76,0,0,0,3.58-3.88,7.29,7.29,0,0,0,.22-6.53c-.14-.38-.32-.73-.92-.58a7.77,7.77,0,0,1-6.64-1.32c-.19-.13-.47-.28-.65-.22a8.12,8.12,0,0,0-2.49.83c-3.53,2.41-7,4.87-10.48,7.4-1.73,1.28-3.33,2.75-5,4.15a5.75,5.75,0,0,0-2,4C314.06,277.94,314.06,279.14,314,280.34ZM277.3,332.91a4.3,4.3,0,0,0,2.42-1.27c7.49-6.18,15-12.32,22.48-18.53,5-4.19,10-8.46,15-12.69a1.26,1.26,0,0,0,.48-1.34c-.31-1.64-.58-3.29-.82-4.94a.67.67,0,0,0-.66-.66h0c-1.32-.14-2.64-.28-4-.46a1.22,1.22,0,0,0-1.21.46c-2.84,3.07-5.68,6.13-8.56,9.16a1.47,1.47,0,0,0-.45,1.68,1.16,1.16,0,0,1-.21,1.28l-24.06,26.77Zm22.61-27.75-.08-.09c-.14.08-.28.15-.41.24l-28.08,19.55A.85.85,0,0,0,271,326l0,0,.37-.15,17.87-8.44a2.56,2.56,0,0,0,.83-.67q4.77-5.57,9.52-11.17C299.67,305.5,299.78,305.32,299.91,305.16Zm-22.85,27.26.15.14c1.12-1.21,2.25-2.4,3.35-3.63q10.35-11.58,20.75-23.17a1.81,1.81,0,0,0,.24-2.1Zm35.72-27.63.07.07H313c1.58-.85,3.14-1.74,4.74-2.54a1.68,1.68,0,0,0,1.14-1.66,18.39,18.39,0,0,1,.25-2.34c.14-1.45.14-1.45-1.31-1.77a.32.32,0,0,0-.18.08,17.69,17.69,0,0,0,.4,2.29,1.7,1.7,0,0,1-.7,2C315.78,302.09,314.29,303.44,312.78,304.79Z"/><path class="cls-7" d="M319.15,302.18c.21-1.83.38-3.54.61-5.24a1,1,0,0,1,.54-.62,16.58,16.58,0,0,1,1.87-.67c1.87-.59,3.76-1.14,5.63-1.74,5-1.59,9.07-4.64,12.83-8.16a5.46,5.46,0,0,0,1.74-4.67,1.27,1.27,0,0,1,.87-1.5,26.55,26.55,0,0,1,3.08-.89.92.92,0,0,1,.73.41,39.43,39.43,0,0,1,4.11,13.23,10.76,10.76,0,0,1-4.34,10.16,7.18,7.18,0,0,1-3.76,1.3,19.38,19.38,0,0,1-6.34-.79c-1.26-.31-2.51-.7-3.79-.93a20,20,0,0,0-4-.47,41.9,41.9,0,0,0-8.67.54A6.87,6.87,0,0,1,319.15,302.18ZM341,301.12c2.81-.22,5.28-1.19,6.78-3.87a5.84,5.84,0,0,0-2.52-7.84,6,6,0,0,0-1.84-.58c-2.91-.3-7.51,1.48-8.67,5.7A4.27,4.27,0,0,0,335.8,299,7.29,7.29,0,0,0,341,301.12Z"/><path class="cls-7" d="M314,280.34c.09-1.2.14-2.4.27-3.59a5.75,5.75,0,0,1,2-4c1.64-1.4,3.24-2.87,5-4.15,3.44-2.53,6.95-5,10.48-7.4a8.12,8.12,0,0,1,2.49-.83c.18-.06.46.09.65.22a7.77,7.77,0,0,0,6.64,1.32c.6-.15.78.2.92.58a7.29,7.29,0,0,1-.22,6.53,12.76,12.76,0,0,1-3.58,3.88c-2.79,2.05-5.63,4.05-8.35,6.18a31.82,31.82,0,0,0-4.2,3.92c-2.61,2.93-5.1,6-7.61,9a2.14,2.14,0,0,1-2.3,1c-1.22-.25-2.49-.3-3.73-.46a7.29,7.29,0,0,1-.94-.28,3.35,3.35,0,0,1,.41-1,7.34,7.34,0,0,0,1.46-3.27A27.69,27.69,0,0,0,314,280.34Zm2.15-1.11c.06,1.72.49,3.09,1.86,3.92s2.58.28,3.73-.47,2.1-1.45,3.1-2.24c3.8-3,7.55-6.06,11.37-9a4.06,4.06,0,0,0,1.67-4.25,3.46,3.46,0,0,0-3.11-2.81,7.36,7.36,0,0,0-6,1.19c-2.93,2.19-5.79,4.47-8.64,6.76a12.72,12.72,0,0,0-3.61,5.48A6.46,6.46,0,0,0,316.11,279.23Z"/><path class="cls-7" d="M277.3,332.91l.47-.54q12-13.39,24.06-26.77a1.16,1.16,0,0,0,.21-1.28,1.47,1.47,0,0,1,.45-1.68c2.88-3,5.72-6.09,8.56-9.16a1.22,1.22,0,0,1,1.21-.46c1.31.18,2.63.32,4,.46a.66.66,0,0,1,.69.62v0c.24,1.65.51,3.3.82,4.94a1.26,1.26,0,0,1-.48,1.34c-5,4.23-10,8.5-15,12.69-7.47,6.21-15,12.35-22.48,18.53A4.33,4.33,0,0,1,277.3,332.91ZM307.06,302a1.63,1.63,0,0,0-1.61,1.64v0a1.6,1.6,0,0,0,1.6,1.56,1.65,1.65,0,0,0,1.59-1.68,1.55,1.55,0,0,0-1.56-1.54Z"/><path class="cls-7" d="M299.91,305.16c-.13.16-.24.34-.38.49L290,316.82a2.67,2.67,0,0,1-.78.64q-8.94,4.25-17.87,8.44l-.37.15a.85.85,0,0,1,.31-1.17l0,0,28.08-19.55c.13-.09.27-.16.41-.24Z"/><path class="cls-7" d="M277.06,332.42l24.49-28.76a1.81,1.81,0,0,1-.24,2.1q-10.41,11.57-20.75,23.17c-1.1,1.23-2.23,2.42-3.35,3.63Z"/><path class="cls-7" d="M312.78,304.79c1.51-1.33,3-2.68,4.54-4a1.7,1.7,0,0,0,.7-2,17.69,17.69,0,0,1-.4-2.29c.1,0,.14-.08.18-.08,1.45.32,1.45.32,1.31,1.77a18.39,18.39,0,0,0-.25,2.34,1.68,1.68,0,0,1-1.14,1.66c-1.6.8-3.16,1.69-4.74,2.54h-.13Z"/><path class="cls-6" d="M341,301.12A7.29,7.29,0,0,1,335.8,299a4.27,4.27,0,0,1-1.07-4.42c1.16-4.22,5.76-6,8.67-5.7a5.82,5.82,0,0,1,4.94,6.58,6,6,0,0,1-.58,1.84C346.26,299.93,343.79,300.9,341,301.12Zm2.59-11.86c-4,0-7,2-8.13,4.78a4,4,0,0,0,1.52,5.29,7.34,7.34,0,0,0,10.15-1.92,4.83,4.83,0,0,0,.2-5.24C346.32,290.36,344.85,289.27,343.57,289.26Z"/><path class="cls-6" d="M316.11,279.23a6.56,6.56,0,0,1,.32-1.46,12.76,12.76,0,0,1,3.63-5.48c2.85-2.29,5.71-4.57,8.64-6.76a7.36,7.36,0,0,1,6-1.19,3.46,3.46,0,0,1,3.11,2.81,4.06,4.06,0,0,1-1.67,4.25c-3.82,3-7.57,6-11.37,9a35,35,0,0,1-3.1,2.24c-1.1.69-2.41,1.27-3.73.47S316.17,281,316.11,279.23Zm17.16-14.66a7.92,7.92,0,0,0-4.58,1.51c-2.82,2.18-5.62,4.37-8.39,6.62a11.94,11.94,0,0,0-3.42,5.25,4.53,4.53,0,0,0-.25,2c.21,2.8,2.25,3.9,4.64,2.47a31.65,31.65,0,0,0,3.23-2.31c3.88-3.06,7.73-6.15,11.61-9.22a3.48,3.48,0,0,0,1.29-3.47,2.89,2.89,0,0,0-2.27-2.43A15.55,15.55,0,0,0,333.27,264.57Z"/><path class="cls-6" d="M307.06,302a1.54,1.54,0,0,1,1.6,1.49v.05a1.64,1.64,0,0,1-1.6,1.68h0a1.59,1.59,0,0,1-1.62-1.56A1.61,1.61,0,0,1,307,302Zm.14.19a1.45,1.45,0,0,0-1.52,1.29,1.35,1.35,0,0,0,1.19,1.5h.07a1.41,1.41,0,1,0,.25-2.8Z"/><path class="cls-7" d="M307.19,302.16a1.41,1.41,0,0,1-.26,2.8,1.36,1.36,0,0,1-1.27-1.45.13.13,0,0,1,0-.06A1.45,1.45,0,0,1,307.19,302.16Z"/><path class="cls-8" d="M262.55,688.49C152.83,632.11,75.55,521.43,66.34,392"/><polygon class="cls-1" points="89.39 408.08 66.88 399.35 44.97 409.48 65.52 356.14 89.39 408.08"/><path class="cls-8" d="M776.51,264.57A363.11,363.11,0,0,1,790.79,365.7c0,138.36-77.47,258.63-191.41,319.78"/><polygon class="cls-1" points="604.72 657.87 605.91 681.98 624.1 697.86 567 700.83 604.72 657.87"/><path class="cls-8" d="M303.25,25.06A363.81,363.81,0,0,1,581.94,37.17"/><polygon class="cls-1" points="556.63 49.39 575.25 34.03 577.13 9.96 613.61 53.97 556.63 49.39"/><g class="cls-9"><text class="cls-10" transform="translate(426.29 74.08)">Olló</text><text class="cls-10" transform="translate(336.11 102.43)">L</text><text class="cls-10" transform="translate(352.61 102.43)">e</text><text class="cls-10" transform="translate(368.99 102.43)">győzi a papí</text><text class="cls-11" transform="translate(543.7 102.43)">r</text><text class="cls-10" transform="translate(560.05 102.43)">t</text></g><g class="cls-9"><text class="cls-12" transform="translate(636.92 489.55) rotate(-67.93)">P</text><text class="cls-13" transform="translate(645.56 468.24) rotate(-67.93)">apír</text><text class="cls-13" transform="translate(636.04 581.54) rotate(-67.93)">L</text><text class="cls-13" transform="translate(643.41 563.35) rotate(-67.93)">e</text><text class="cls-13" transform="translate(650.74 545.28) rotate(-67.93)">győzi a kö</text><text class="cls-14" transform="translate(715.9 384.57) rotate(-67.93)">v</text><text class="cls-13" transform="translate(723.07 366.87) rotate(-67.93)">et</text></g><g class="cls-9"><text class="cls-15" transform="translate(191.62 508.22) rotate(-120.67)">Kő</text><text class="cls-15" transform="translate(275.08 584.42) rotate(-120.67)">L</text><text class="cls-15" transform="translate(265.31 567.94) rotate(-120.67)">e</text><text class="cls-15" transform="translate(255.61 551.58) rotate(-120.67)">győzi az ollót</text></g></g></g></svg>