<svg xmlns="http://www.w3.org/2000/svg" viewBox="0 0 258.34 238.76"><defs><style>.cls-1,.cls-2,.cls-4{fill:#fff;}.cls-1,.cls-3,.cls-4,.cls-5{stroke:#231f20;stroke-miterlimit:10;}.cls-1{stroke-width:12px;}.cls-3,.cls-4{stroke-width:2px;}.cls-5{stroke-width:4px;}</style></defs><title>Asset 1</title><g id="Layer_2" data-name="Layer 2"><g id="Layer_1-2" data-name="Layer 1"><circle class="cls-1" cx="127.42" cy="176.07" r="56.69"/><path d="M168.39,190.74V194c.51,8.44-2.69,14.23-10.45,17.37-7.25,2.95-14.74,5.32-22.15,7.87a4.13,4.13,0,0,1-2.53.06c-12.2-4.14-24.36-8.4-36.57-12.52-3.71-1.25-4.53-3.69-4.48-7.4.15-11.5,0-23-.26-34.5,0-2.65-.86-5.29-1.39-7.93-1.11-5.53,1.46-9.24,7.15-12.4,3.6-2,7.82-2.85,11.74-4.25,1.81-.64,3.94-1,5.29-2.15a17,17,0,0,1,15.17-4.2c7.72,1.37,15.59,1.89,23.29,3.36s8.51,3.43,9.42,9.45c1.28,8.49,2.93,16.93,4.16,25.43.88,6.15,1.33,12.38,2,18.57ZM136.18,216c4.8-1.83,8.92-3.28,12.92-5,.69-.31,1-1.88,1.16-2.92.44-3.17.32-6.47,1.12-9.53,1.25-4.76,3.31-9.31,4.59-14.07a43.84,43.84,0,0,0,1.25-9.74c.11-3.2-.8-6.47-.43-9.62.75-6.37-1.74-11.75-4.35-17.17-1-2.15-2.65-2.78-4.64-1.14-3.5,2.86-7,5.7-10.34,8.75a5.51,5.51,0,0,0-1.56,3.63q-.37,22.14-.45,44.28c0,3.91.44,7.86.73,12.53Zm-31.85-65.93-.3.82a64.51,64.51,0,0,0-7.08.69c-1.45.29-3.35.92-4,2-.46.81.59,2.77,1.39,3.92,2.75,4,6.14,7.56,8.45,11.75,5.91,10.71,6.61,8.4-1.21,19.1-.54.74-1.38,1.77-1.21,2.45,1.25,5,2.55,10,4.24,14.88.35,1,2.34,1.71,3.69,1.94.51.1,1.41-1.45,2-2.34,1.09-1.72,1.72-3.91,3.17-5.18,3.54-3.12,4.54-7.1,5-11.46a22.57,22.57,0,0,1,.65-3.15c1.36-5.85,3-11.66,4-17.57.8-4.44-.24-9.46-3.7-11.81C115.05,153.17,109.42,152,104.33,150.09Zm29,65.9c-.15-12.34-.4-24-.37-35.56,0-6.45.46-12.9.73-19.35.07-1.7.11-3.42-2.14-3.62-2.85-.26-5.71-.35-9-.53.55,2,1.16,3.72,1.46,5.48.39,2.29,1,4.71.67,6.93-.83,5.07-2.16,10.07-3.37,15.07A74.1,74.1,0,0,0,119.85,210a3.11,3.11,0,0,0,1.45,2.27c4,1.37,8.08,2.54,12,3.69Zm25.61-73.44c-.46,4.29-.84,7.73-1.16,11.18a14,14,0,0,0,.14,2.24c.53,7.45,1.11,14.89,1.56,22.35a8.27,8.27,0,0,1-.73,3.46c-2.6,6.2-3.63,12.29.52,18.31.58.84.58,2.07,1,3.06a13.7,13.7,0,0,0,1.16,2c4.12-2.21,4.81-5.41,4.37-9.44-1.63-15-3-30-4.61-45-.33-2.59-1.42-5.11-2.28-8.16Zm-63.29,5.91.39,1a26.72,26.72,0,0,0,3.47-.21c5.24-.79,10.13.22,15.16,1.9a141.55,141.55,0,0,0,17.8,4.17c1.74.36,6.57-3.7,5.91-4.42a18.52,18.52,0,0,0-5.14-3.24c-.59-.31-1.51.09-2.23-.06-3-.64-6.36-.73-8.91-2.19-6.66-3.83-13.32-2.7-20-.81-2.35.64-4.34,2.53-6.48,3.86Zm-.73,12.1-.86.3c.16,1.77.39,3.54.47,5.31.28,6,.36,12,.86,18,.13,1.54,1.56,3,2.39,4.44,1.28-.73,2.81-1.22,3.78-2.25a28.75,28.75,0,0,0,3.69-5.26,4.12,4.12,0,0,0,.6-3c-2.51-6.53-6.72-12-11-17.54Zm59.69-20.36c-6.24-3.8-18.93-3.66-23.57-.33l1.53,6c2.25.56,4.63.72,6.54,1.76s3.11.55,4.58-.58a62.18,62.18,0,0,1,5.29-3.66c1.67-1.06,3.45-2,5.6-3.19Zm-38.18,1.08a21.46,21.46,0,0,0,2.71,1.57c2.68,1.08,5.38,2.14,8.14,3a2.35,2.35,0,0,0,2.15-.66,3.3,3.3,0,0,0,.27-2.66c-2.73-6-8.86-6.69-13.3-1.25ZM96.67,189.47l-1.17.38q-.33,4.44-.68,8.88c-.33,4.44,1.82,6.33,7,5.63-1.61-5.09-1.67-10.62-5.18-14.89Zm59,5.81-1.81.13c-.59,3.77-1.3,7.53-1.73,11.31-.17,1.47,0,3.4,2.36,2.84,1.94-.48,5.08-.44,4.58-3.4-.68-3.72-2.28-7.26-3.46-10.88Zm-38.13,15.56V198.7l-1-.22c-.91,1.14-1.86,2.24-2.71,3.41C109.88,207.38,110.76,209.6,117.54,210.84Zm34.7-67,4.3,5.46,1.1-.58a48,48,0,0,0-1.95-5.42C155.59,143.1,154,143.58,152.24,143.84Z"/><path class="cls-2" d="M136.18,216c-.29-4.67-.75-8.62-.73-12.57q.06-22.14.45-44.28a5.51,5.51,0,0,1,1.56-3.63c3.32-3,6.84-5.89,10.34-8.75,2-1.64,3.61-1,4.64,1.14,2.61,5.42,5.1,10.8,4.35,17.17-.37,3.15.54,6.42.43,9.62a43.84,43.84,0,0,1-1.25,9.74c-1.28,4.76-3.34,9.31-4.59,14.07-.8,3.06-.68,6.36-1.12,9.53-.14,1-.47,2.61-1.16,2.92C145.1,212.74,141,214.19,136.18,216Z"/><path class="cls-2" d="M104.33,150.09c5.09,1.93,10.72,3.08,15.11,6,3.46,2.35,4.5,7.37,3.7,11.81-1.07,5.91-2.68,11.72-4,17.57a22.57,22.57,0,0,0-.65,3.15c-.41,4.36-1.41,8.34-5,11.46-1.45,1.27-2.08,3.46-3.17,5.18-.58.89-1.48,2.44-2,2.34-1.35-.23-3.34-.94-3.69-1.94-1.69-4.87-3-9.87-4.24-14.88-.17-.68.67-1.71,1.21-2.45,7.82-10.7,7.12-8.39,1.21-19.1-2.31-4.19-5.7-7.78-8.45-11.75-.8-1.15-1.85-3.11-1.39-3.92.61-1.09,2.51-1.72,4-2a64.51,64.51,0,0,1,7.08-.69Z"/><path class="cls-2" d="M133.3,216c-3.92-1.18-8-2.32-12-3.69a3.11,3.11,0,0,1-1.45-2.27,74.1,74.1,0,0,1,1.46-25.62c1.21-5,2.54-10,3.37-15.07.36-2.22-.28-4.64-.67-6.93-.3-1.76-.91-3.47-1.46-5.48,3.26.18,6.12.27,9,.53,2.25.2,2.21,1.92,2.14,3.62-.27,6.45-.72,12.9-.73,19.35C132.9,192,133.15,203.65,133.3,216Z"/><path class="cls-2" d="M158.91,142.55c.86,3,2,5.57,2.23,8.17,1.63,15,3,30,4.61,45,.44,4-.25,7.23-4.37,9.44a13.7,13.7,0,0,1-1.16-2c-.4-1-.4-2.22-1-3.06-4.15-6-3.12-12.11-.52-18.31a8.27,8.27,0,0,0,.73-3.46c-.45-7.46-1-14.9-1.56-22.35a14,14,0,0,1-.14-2.24C158.07,150.28,158.45,146.84,158.91,142.55Z"/><path class="cls-2" d="M95.62,148.46c2.14-1.33,4.13-3.22,6.46-3.89,6.67-1.89,13.33-3,20,.81,2.55,1.46,5.91,1.55,8.91,2.19.72.15,1.64-.25,2.23.06a18.38,18.38,0,0,1,5.14,3.24c.66.72-4.17,4.78-5.91,4.42-6-1.2-12-2.24-17.8-4.17-5-1.68-9.92-2.69-15.16-1.9-1.14.17-2.31.15-3.47.21Z"/><path class="cls-2" d="M94.89,160.56c4.24,5.49,8.45,11,10.93,17.59a4.12,4.12,0,0,1-.6,3,28.75,28.75,0,0,1-3.69,5.26,17.26,17.26,0,0,1-3.78,2.25c-.83-1.48-2.26-2.9-2.39-4.44-.5-6-.58-12-.86-18-.08-1.77-.31-3.54-.47-5.31Z"/><path class="cls-2" d="M154.58,140.2c-2.15,1.21-3.93,2.13-5.63,3.19a62.18,62.18,0,0,0-5.29,3.66c-1.47,1.13-2.63,1.64-4.58.58s-4.29-1.2-6.54-1.76l-1.53-6C135.65,136.54,148.34,136.4,154.58,140.2Z"/><path class="cls-2" d="M116.4,141.28c4.44-5.46,10.56-4.76,13.27,1.27a3.3,3.3,0,0,1-.27,2.66,2.35,2.35,0,0,1-2.15.66c-2.76-.88-5.46-1.94-8.14-3A22.88,22.88,0,0,1,116.4,141.28Z"/><path class="cls-2" d="M96.64,189.47c3.51,4.27,3.57,9.8,5.11,14.89-5.14.7-7.29-1.19-7-5.63.23-3,.45-5.92.68-8.88Z"/><path class="cls-2" d="M155.61,195.28c1.18,3.62,2.78,7.16,3.4,10.88.5,3-2.64,2.92-4.58,3.4-2.31.56-2.53-1.37-2.36-2.84.43-3.78,1.14-7.54,1.73-11.31Z"/><path class="cls-2" d="M117.54,210.84c-6.78-1.25-7.66-3.47-3.66-9,.85-1.17,1.8-2.27,2.71-3.41l1,.22Z"/><path class="cls-2" d="M152.24,143.84c1.72-.29,3.35-.77,3.45-.54a48,48,0,0,1,1.95,5.42l-1.1.58Z"/><circle class="cls-1" cx="62.69" cy="62.69" r="56.69"/><path class="cls-3" d="M86.3,23a6.84,6.84,0,0,0,5.58,1.87,6.6,6.6,0,0,0,.87-.15c1-.22,1.23-.19,1.62.78a7.69,7.69,0,0,1-.19,6.9,13.49,13.49,0,0,1-3.87,4.19c-3.21,2.39-6.53,4.66-9.56,7.27a70.12,70.12,0,0,0-6.28,6.62c-1.42,1.59-2.7,3.32-4.07,5-.47.56-1,1-1.66,1.65.08.48.17,1.16.31,1.83a.65.65,0,0,0,.33.41c.68.21,1.3.63,2.06-.07a5.45,5.45,0,0,1,2-.81c2.2-.71,4.42-1.33,6.6-2.09,4.6-1.6,8.36-4.51,11.86-7.81A5.34,5.34,0,0,0,93.42,44a1.29,1.29,0,0,1,.63-1.29A7.06,7.06,0,0,1,98,41.46a1,1,0,0,1,1,.59,46,46,0,0,1,4.1,12.41,4.85,4.85,0,0,0,.16.63v3.1c-.12.52-.22,1-.35,1.56-1.38,5.29-5.51,8.75-11.53,7.63-2.53-.46-5-1.16-7.54-1.71a10.93,10.93,0,0,0-2.61-.34c-3.12.07-6.25-.11-9.33.53-1.1.22-1.29.13-1.84-.42l-7.37,4a3.12,3.12,0,0,0-.4.32Q47.18,82.21,32.08,94.67a9.15,9.15,0,0,1-3.35,2h-.88A.92.92,0,0,1,28,96Q34,89,39.93,82l.46-.57-.11-.11L22.09,89.87V88.25C30.89,82.12,39.66,76,48.5,69.9a37.48,37.48,0,0,0,7.31-6.34c2.09-2.39,4.31-4.66,6.48-7a.82.82,0,0,0,.26-1,1.45,1.45,0,0,1,.26-1.16,8.58,8.58,0,0,0,1.85-4.89c.21-2,.29-4.06.43-6.09.08-1.28.11-2.56.25-3.82a5.83,5.83,0,0,1,2-3.92c1.76-1.52,3.5-3.1,5.37-4.48C76.07,28.71,79.5,26.32,83,24a12.08,12.08,0,0,1,2.73-1ZM70.71,65.41a6.34,6.34,0,0,0,1.07-.06,41.94,41.94,0,0,1,8.67-.54,19.87,19.87,0,0,1,4,.47c1.28.23,2.53.62,3.79.93a19.4,19.4,0,0,0,6.38.81,7.2,7.2,0,0,0,3.8-1.28,10.74,10.74,0,0,0,4.34-10.16,39.07,39.07,0,0,0-4.14-13.25.89.89,0,0,0-.73-.41,27.74,27.74,0,0,0-3.08.89,1.28,1.28,0,0,0-.87,1.5A5.43,5.43,0,0,1,92.2,49c-3.76,3.52-7.84,6.57-12.83,8.16-1.87.6-3.76,1.15-5.63,1.74a17.32,17.32,0,0,0-1.87.67,1,1,0,0,0-.54.62C71.09,61.87,70.92,63.58,70.71,65.41ZM65.52,43.57a27.49,27.49,0,0,1-.64,7.62,7.34,7.34,0,0,1-1.46,3.27,3.35,3.35,0,0,0-.41,1,7.79,7.79,0,0,0,.94.28c1.24.16,2.51.21,3.73.46a2.14,2.14,0,0,0,2.3-1c2.51-3,5-6.08,7.61-9a32.45,32.45,0,0,1,4.2-3.92c2.72-2.13,5.56-4.13,8.35-6.18a12.76,12.76,0,0,0,3.58-3.88,7.26,7.26,0,0,0,.22-6.53c-.14-.38-.32-.73-.92-.58a7.77,7.77,0,0,1-6.64-1.32c-.19-.13-.47-.28-.65-.22a8.12,8.12,0,0,0-2.49.83c-3.53,2.41-7,4.87-10.48,7.4-1.73,1.28-3.33,2.75-5,4.15a5.75,5.75,0,0,0-2,4C65.62,41.17,65.62,42.37,65.52,43.57ZM28.86,96.14a4.3,4.3,0,0,0,2.42-1.27c7.49-6.18,15-12.32,22.48-18.53,5-4.19,10-8.46,15-12.69a1.26,1.26,0,0,0,.48-1.34c-.31-1.64-.58-3.29-.82-4.94a.66.66,0,0,0-.66-.66h0c-1.32-.14-2.64-.28-4-.46a1.22,1.22,0,0,0-1.21.46c-2.84,3.07-5.68,6.13-8.56,9.16a1.47,1.47,0,0,0-.45,1.68,1.14,1.14,0,0,1-.21,1.28L29.23,95.6ZM51.47,68.39l-.08-.09c-.14.08-.28.15-.41.24L22.9,88.09a.86.86,0,0,0-.37,1.16l0,0,.37-.15,17.87-8.44a2.56,2.56,0,0,0,.83-.67q4.77-5.56,9.52-11.17C51.23,68.73,51.34,68.55,51.47,68.39ZM28.62,95.65l.15.14c1.12-1.21,2.25-2.4,3.35-3.63L52.87,69a1.78,1.78,0,0,0,.24-2.1ZM64.34,68l.07.07h.13c1.58-.85,3.14-1.74,4.74-2.54a1.68,1.68,0,0,0,1.14-1.66,20.4,20.4,0,0,1,.25-2.34c.14-1.45.14-1.45-1.31-1.77a.32.32,0,0,0-.18.08,20,20,0,0,0,.4,2.29,1.7,1.7,0,0,1-.7,2C67.34,65.32,65.85,66.67,64.34,68Z"/><path class="cls-4" d="M70.71,65.41c.21-1.83.38-3.54.61-5.24a1,1,0,0,1,.54-.62,17.32,17.32,0,0,1,1.87-.67c1.87-.59,3.76-1.14,5.63-1.74,5-1.59,9.07-4.64,12.83-8.16a5.43,5.43,0,0,0,1.74-4.67,1.28,1.28,0,0,1,.87-1.5,27.74,27.74,0,0,1,3.08-.89.89.89,0,0,1,.73.41,39,39,0,0,1,4.11,13.23,10.74,10.74,0,0,1-4.34,10.16A7.18,7.18,0,0,1,94.62,67a19.45,19.45,0,0,1-6.34-.79c-1.26-.31-2.51-.7-3.79-.93a19.87,19.87,0,0,0-4-.47,41.94,41.94,0,0,0-8.67.54A6.87,6.87,0,0,1,70.71,65.41Zm21.83-1.06c2.81-.22,5.28-1.19,6.78-3.87a5.82,5.82,0,0,0-2.52-7.84A6,6,0,0,0,95,52.06c-2.91-.3-7.51,1.48-8.67,5.7a4.29,4.29,0,0,0,1.07,4.42A7.3,7.3,0,0,0,92.54,64.35Z"/><path class="cls-4" d="M65.52,43.57c.09-1.2.14-2.4.27-3.59a5.75,5.75,0,0,1,2-4c1.64-1.4,3.24-2.87,5-4.15,3.44-2.53,6.95-5,10.48-7.4a8.12,8.12,0,0,1,2.49-.83c.18-.06.46.09.65.22a7.77,7.77,0,0,0,6.64,1.32c.6-.15.78.2.92.58a7.26,7.26,0,0,1-.22,6.53,12.76,12.76,0,0,1-3.58,3.88c-2.79,2-5.63,4-8.35,6.18a32.45,32.45,0,0,0-4.2,3.92c-2.61,2.93-5.1,6-7.61,9a2.14,2.14,0,0,1-2.3,1c-1.22-.25-2.49-.3-3.73-.46a7.79,7.79,0,0,1-.94-.28,3.35,3.35,0,0,1,.41-1,7.34,7.34,0,0,0,1.46-3.27A27.31,27.31,0,0,0,65.52,43.57Zm2.15-1.11c.06,1.72.49,3.09,1.86,3.92s2.58.28,3.73-.47,2.1-1.45,3.1-2.24c3.8-3,7.55-6.06,11.37-9a4,4,0,0,0,1.67-4.25,3.46,3.46,0,0,0-3.11-2.81,7.32,7.32,0,0,0-6,1.19c-2.93,2.19-5.79,4.47-8.64,6.76A12.81,12.81,0,0,0,68,41,6.9,6.9,0,0,0,67.67,42.46Z"/><path class="cls-4" d="M28.86,96.14l.47-.54q12-13.39,24.06-26.77a1.14,1.14,0,0,0,.21-1.28,1.47,1.47,0,0,1,.45-1.68c2.88-3,5.72-6.09,8.56-9.16a1.22,1.22,0,0,1,1.21-.46c1.31.18,2.63.32,4,.46a.66.66,0,0,1,.7.62v0c.24,1.65.51,3.3.82,4.94a1.26,1.26,0,0,1-.48,1.34c-5,4.23-10,8.5-15,12.69-7.47,6.21-15,12.35-22.48,18.53A4.27,4.27,0,0,1,28.86,96.14ZM58.62,65.2A1.62,1.62,0,0,0,57,66.84v0a1.6,1.6,0,0,0,1.6,1.56,1.65,1.65,0,0,0,1.59-1.68,1.54,1.54,0,0,0-1.56-1.54Z"/><path class="cls-4" d="M51.47,68.39c-.13.16-.24.34-.38.49q-4.76,5.59-9.52,11.17a2.55,2.55,0,0,1-.78.64q-8.92,4.25-17.87,8.44l-.37.15a.85.85,0,0,1,.32-1.17l0,0L51,68.54c.13-.09.27-.16.41-.24Z"/><path class="cls-4" d="M28.62,95.65,53.11,66.89a1.78,1.78,0,0,1-.24,2.1Q42.46,80.56,32.12,92.16c-1.1,1.23-2.23,2.42-3.35,3.63Z"/><path class="cls-4" d="M64.34,68c1.51-1.33,3-2.68,4.54-4a1.7,1.7,0,0,0,.7-2,20,20,0,0,1-.4-2.29c.1,0,.14-.08.18-.08,1.45.32,1.45.32,1.31,1.77a20.4,20.4,0,0,0-.25,2.34,1.68,1.68,0,0,1-1.14,1.66c-1.6.8-3.16,1.69-4.74,2.54h-.13Z"/><path class="cls-3" d="M92.54,64.35a7.3,7.3,0,0,1-5.18-2.17,4.29,4.29,0,0,1-1.07-4.42c1.16-4.22,5.76-6,8.67-5.7a5.81,5.81,0,0,1,4.94,6.58,5.72,5.72,0,0,1-.58,1.84C97.82,63.16,95.35,64.13,92.54,64.35Zm2.59-11.86c-4,0-7,2-8.13,4.78a4,4,0,0,0,1.52,5.29,7.34,7.34,0,0,0,10.15-1.92,4.83,4.83,0,0,0,.2-5.24C97.88,53.59,96.41,52.5,95.13,52.49Z"/><path class="cls-3" d="M67.67,42.46A6.56,6.56,0,0,1,68,41a12.76,12.76,0,0,1,3.63-5.48c2.85-2.29,5.71-4.57,8.64-6.76a7.32,7.32,0,0,1,6-1.19,3.46,3.46,0,0,1,3.11,2.81,4,4,0,0,1-1.67,4.25c-3.82,3-7.57,6-11.37,9a35,35,0,0,1-3.1,2.24c-1.1.69-2.41,1.27-3.73.47S67.73,44.18,67.67,42.46ZM84.83,27.8a7.85,7.85,0,0,0-4.58,1.51c-2.82,2.18-5.62,4.37-8.39,6.62a12.12,12.12,0,0,0-3.42,5.25,4.53,4.53,0,0,0-.25,2c.21,2.8,2.25,3.9,4.64,2.47a31.65,31.65,0,0,0,3.23-2.31c3.88-3.06,7.73-6.15,11.61-9.22A3.46,3.46,0,0,0,89,30.65a2.89,2.89,0,0,0-2.27-2.43A14.72,14.72,0,0,0,84.83,27.8Z"/><path class="cls-3" d="M58.62,65.2a1.55,1.55,0,0,1,1.61,1.49v0a1.64,1.64,0,0,1-1.6,1.68h0A1.59,1.59,0,0,1,57,66.86a1.63,1.63,0,0,1,1.58-1.66Zm.14.19a1.46,1.46,0,0,0-1.52,1.29,1.35,1.35,0,0,0,1.2,1.5h.06A1.43,1.43,0,0,0,60,66.91a1.42,1.42,0,0,0-1.28-1.52Z"/><path class="cls-4" d="M58.75,65.39A1.41,1.41,0,0,1,60,66.91a1.43,1.43,0,0,1-1.53,1.28,1.36,1.36,0,0,1-1.27-1.45.13.13,0,0,0,0-.06A1.46,1.46,0,0,1,58.75,65.39Z"/><circle class="cls-1" cx="195.65" cy="62.69" r="56.69"/><path class="cls-5" d="M158.23,91l.3-2.06a42.31,42.31,0,0,1,2.14-7.8c1.92-5.35,4.27-10.51,6.6-15.69,2.73-6.09,5.54-12.16,7.8-18.45a52,52,0,0,0,2.49-8.92c.08-.45-.07-.48-.42-.49-3.41-.07-6.81-.17-10.22-.2A2.33,2.33,0,0,1,164.63,36a6.71,6.71,0,0,1,.69-7,7.46,7.46,0,0,1,5.13-2.95l1.43-.22h2.06c.2,0,.42.07.63.09l6.6.13,10.71.2,19.59.34,9.09.12c2.2,0,4.4.06,6.6.11a9.37,9.37,0,0,1,2.42.16,6.8,6.8,0,0,1,4.94,4.94c.17.67.28,1.36.42,2v1.62c-.1.69-.19,1.38-.3,2.06A40.64,40.64,0,0,1,232.17,46c-2.24,5.7-5,11.15-7.79,16.63-3,6-6.06,11.9-8.55,18.11-.7,1.76-1.31,3.55-2,5.41,1.07.08,2,.17,3,.23,2.08.15,4.16.27,6.25.44a12.6,12.6,0,0,1,2.86.37,5.8,5.8,0,0,1,3.91,5.63,11.27,11.27,0,0,1-8.36,10.74c-.46.11-.94.18-1.41.27h-1.4a6.85,6.85,0,0,1-.79-.13l-5-.52-3.87-.36-4.13-.4L201,102l-4-.39-3.92-.36-4.08-.4-3.92-.36c-1.36-.13-2.71-.27-4.07-.39l-3.92-.37c-1.36-.12-2.72-.26-4.08-.39L169.06,99c-1.71-.16-3.43-.36-5.15-.49a5.54,5.54,0,0,1-5.31-4.24c-.14-.57-.22-1.15-.33-1.73Zm56.23,10.88a16.72,16.72,0,0,1-1.38-1.53,9.52,9.52,0,0,1-1-1.72,12.74,12.74,0,0,1-.82-6.63,32.8,32.8,0,0,1,1.65-7.31,103.85,103.85,0,0,1,5.74-13.64c2.75-5.62,5.58-11.2,8.33-16.81a89.89,89.89,0,0,0,5.2-12.41,23.86,23.86,0,0,0,1.33-7.39,5.88,5.88,0,0,0-3.9-6,2.55,2.55,0,0,0-2.34.09A26.09,26.09,0,0,0,225,30.15a1.68,1.68,0,0,0-.3.4h3.08a1.49,1.49,0,0,1,.85.35,6.11,6.11,0,0,1,1.83,3.93,3.31,3.31,0,0,1-1.31,3.1,4.87,4.87,0,0,1-3.14,1c-9-.21-18.05-.46-27.07-.69L180.6,37.8H179c-.1.53-.18,1-.28,1.52a60.24,60.24,0,0,1-3.61,11.43c-2.89,6.81-5.9,13.58-8.86,20.37a109.79,109.79,0,0,0-5.62,14.67,19,19,0,0,0-.93,7.41,4.16,4.16,0,0,0,3.75,3.93c2.76.29,5.53.53,8.29.78l7.22.69,8.73.83,7.43.71,8.52.81,7.43.71Zm10.45-73.69h-.28L214.18,28,192,27.63c-6.46-.12-12.92-.26-19.38-.35a8.38,8.38,0,0,0-4.72,1.16A5.57,5.57,0,0,0,165.68,35c.33.86.53,1,1.41,1l23.49.56,31.73.75h.47C221.23,33.48,221.75,31.26,224.91,28.23ZM212.67,95.39a7.41,7.41,0,0,0,1.37,3.9,6.78,6.78,0,0,0,5.6,3.1c5-.07,9.43-5.31,8.78-10.24a4.19,4.19,0,0,0-2.75-3.59,5.46,5.46,0,0,0-3.86.06,2.85,2.85,0,0,0-2,2.25,5.12,5.12,0,0,0,.7,3.94c.25.39.52.77.85,1.26Zm.87-7.85a23.16,23.16,0,0,0-.93,6.41l6.1.48C218,92,218,89.84,220,88Zm12.2-55.63h-1.62a.54.54,0,0,0-.4.23,4.67,4.67,0,0,0,.16,4.12,2.17,2.17,0,0,0,1.54,1.22,4,4,0,0,0,2.41-.38A2,2,0,0,0,229,34.8a12.72,12.72,0,0,0-.8-2.16A1.06,1.06,0,0,0,227,32,11.22,11.22,0,0,1,225.74,31.91Z"/></g></g></svg>