<svg xmlns="http://www.w3.org/2000/svg" viewBox="0 0 319.46 297.4"><defs><style>.cls-1{fill:#fff;}.cls-2{fill:#231f20;}</style></defs><title>Asset 7</title><g id="Layer_2" data-name="Layer 2"><g id="Layer_1-2" data-name="Layer 1"><path class="cls-1" d="M135.85,159.84c1.13,1.59-.24,2.81-1.24,3.87-2.93,3.18-6,6.27-8.85,9.41-.87.86-1.78,1.74-3,1.67-3.73-.19-5.05,1.64-4.73,5.18.13,1.39-.71,2.45-1.71,3.45q-8.5,9.06-17,18.18c-1.4,1.51-2.91,3-5.09,2.07a5.35,5.35,0,0,1-3.32-5.15V191c-.42-13.46,3-18,15.64-22.22,8.51-2.82,16.88-6,25.3-9.11C133.2,159.19,134.72,158.25,135.85,159.84Z" transform="translate(-0.25 -0.25)"/><path class="cls-1" d="M310.94,92.7c1.09,6.06.05,11-3.8,15.06-10.26,10.9-20.41,21.9-30.64,32.9-1.07,1.14-2,3.26-3.85,2.5-1.45-.6-.71-2.66-.93-4.09-.42-2.68,1.5-7.24-2.93-7.16s-2.55,5-2.76,7.6c-.59,7.41-1,14.83-.2,22.21.75,6.56-.81,11.58-5.25,16.25Q226,214.56,191.74,251.39c-3.35,3.6-6.5,4.64-11.43,2.75-13.52-5.17-27.28-9.69-40.93-14.51-5.08-1.8-5.3-3.19-1.82-7.31s6.95-5.32,12.17-2.7c5,2.52,10.58,3.93,15.92,5.79,1.94.67,4.21,1.34,5.07-1.24.74-2.23-1.2-3.19-3-3.86-4.84-1.79-9.71-3.49-14.52-5.37-5.24-2-5.73-4-1.33-7.88,5.76-5.08,10.77-10.83,15.9-16.49,1.74-1.92,5.53-4.22,2.66-6.85s-4.87,1.3-6.64,3.2l-52,56c-9.85,10.62-19.8,21.15-29.57,31.84-3.55,3.88-7.39,3.78-12.25,1.26a43.59,43.59,0,0,0-10-3.71c-3.62-.87-5.49-3-5.55-6.32-.08-4.83-.13-9.66.13-14.48.18-3.43,1.92-6.22,4.3-8.76Q88.51,221,118.11,189.24,129,177.62,139.7,165.79c2.39-2.62,4.84-5.48,2.6-9.3-2.43-4.16-6.57-3.79-10.24-2.6-10,3.23-19.83,6.83-29.71,10.36-19.74,7.05-39.57,13.88-59.15,21.36-7.14,2.72-13.44,2-20.28-.5C9.2,180.07,9,180.26,9.2,165.93c.17-13.9-3.36-13.32,14-19.5,19.75-7,39.44-14.31,59.18-21.31,20.52-7.32,41.09-14.5,61.62-21.8,7.71-2.74,9.94-6.07,9.94-14.15,0-2.84.1-5.67,0-8.5-.06-1.66-.35-3.81-2.35-3.81-2.3,0-2.77,2.06-2.77,4v6.5c.05,7.58-1.08,9.09-8.22,11.58q-17,5.9-33.9,11.9c-3.61,1.24-7.16,2.7-10.76,4-3.44,1.24-5,.49-5.29-3.69C89.89,101,92,92.6,99.89,85.15c10.73-10.16,20.42-21.43,30.5-32.28A13.24,13.24,0,0,1,141,48.4c10,.18,20,.06,30,.06v.07c10.34,0,20.67,0,31,0,2,0,5,.43,5-2.49s-2.86-2.61-5-2.67a31.43,31.43,0,0,1-3.5,0c-2.67-.31-3.21-1.89-1.51-3.72q12.85-13.93,26-27.6c1.65-1.72,4.1-2.17,6.5-2.17,8-.07,16-.24,24-.17,4.1,0,7.3,2.07,10,5q21.62,23.57,43.39,47c3.79,4.14,5.39,8.83,4,15.29A40.86,40.86,0,0,0,310.94,92.7Z" transform="translate(-0.25 -0.25)"/><path class="cls-2" d="M319.56,91.86c1,10.48-2.94,18.59-10,26-10.81,11.23-20.14,23.84-31.8,34.3a8.82,8.82,0,0,0-3.21,7.56c1.36,11.27-3.34,19.53-11.14,27.37-14.29,14.39-27.66,29.68-41.62,44.4-8.62,9.1-16.62,18.77-25.53,27.63-5.45,5.43-11.25,6.48-18.16,4-14.19-5.2-28.43-10.29-42.59-15.58-3.63-1.35-6.26-.76-8.88,2.11-12.66,13.88-25.44,27.66-38.19,41.46-6.56,7.1-11.17,8.12-20.43,4.69-3.89-1.45-7.84-2.76-11.73-4.22-6.82-2.55-10.7-8.48-10.91-15.72a127.61,127.61,0,0,1,1-18.33A16.46,16.46,0,0,1,50.75,248l4.18-4.42c9.88-10.19,19.6-20.54,29.38-30.83,1.1-1.15,2.08-2.47.94-3.94C80.81,203.18,82,196.57,82,190.17c0-6.57-2.08-8-8.32-5.77-9.34,3.38-18.64,6.9-28,10.2-6.07,2.14-12.15,4.26-18.77,1.66-5.09-2-10.37-3.54-15.55-5.37-5.89-2.07-10.88-9-11-15.29s-.11-12.32,0-18.47c.13-7.84,4.06-13.4,11.44-16.1,19-6.93,38.07-13.77,57.11-20.68,4.17-1.51,9.68-2,12.12-5,2.7-3.28.93-9,.94-13.59a24.13,24.13,0,0,1,7.9-18l11.61-13C106.1,65.63,111,60.7,115.76,55.7q6.7-7,13.44-14a3,3,0,0,1,1.62-.9c16-3.13,32.1-1,48.14-1.44a13.69,13.69,0,0,0,10.16-4.21c8-8.22,17.28-15.48,23.73-24.75,7.46-10.73,17-10.28,28-10,3.25.07,6.72-.22,10.09-.13,7,.17,12.9,2,17.85,7l41.94,46.37A24.52,24.52,0,0,1,319.48,74,136.62,136.62,0,0,0,319.56,91.86Zm-12.42,15.9c3.85-4.1,4.89-9,3.8-15.06a40.86,40.86,0,0,1-.05-15.7c1.39-6.46-.21-11.15-4-15.29q-21.76-23.43-43.39-47c-2.7-2.93-5.9-5-10-5-8-.07-16,.1-24,.17-2.4,0-4.85.45-6.5,2.17q-13.16,13.67-26,27.6c-1.7,1.83-1.16,3.41,1.51,3.72a31.43,31.43,0,0,0,3.5,0c2.14.06,5-.25,5,2.67s-3,2.48-5,2.49c-10.33,0-20.66,0-31,0v-.07c-10,0-20,.12-30-.06a13.24,13.24,0,0,0-10.62,4.47C120.31,63.72,110.62,75,99.89,85.15c-7.87,7.45-10,15.88-9.24,26,.31,4.18,1.85,4.93,5.29,3.69,3.6-1.3,7.15-2.76,10.76-4q16.93-6,33.9-11.9c7.14-2.49,8.27-4,8.22-11.58v-6.5c0-1.94.47-4,2.77-4,2,0,2.29,2.15,2.35,3.81.1,2.83,0,5.66,0,8.5,0,8.08-2.23,11.41-9.94,14.15-20.53,7.3-41.1,14.48-61.62,21.8-19.74,7-39.43,14.28-59.18,21.31-17.36,6.18-13.83,5.6-14,19.5-.16,14.33,0,14.14,13.72,19.18,6.84,2.51,13.14,3.22,20.28.5,19.58-7.48,39.41-14.31,59.15-21.36,9.88-3.53,19.74-7.13,29.71-10.36,3.67-1.19,7.81-1.56,10.24,2.6,2.24,3.82-.21,6.68-2.6,9.3Q129,177.63,118.11,189.24,88.51,221,58.85,252.75c-2.38,2.54-4.12,5.33-4.3,8.76-.26,4.82-.21,9.65-.13,14.48.06,3.29,1.93,5.45,5.55,6.32A43.59,43.59,0,0,1,70,286c4.86,2.52,8.7,2.62,12.25-1.26,9.77-10.69,19.72-21.22,29.57-31.84l52-56c1.77-1.9,3.77-5.83,6.64-3.2s-.92,4.93-2.66,6.85c-5.13,5.66-10.14,11.41-15.9,16.49-4.4,3.88-3.91,5.84,1.33,7.88,4.81,1.88,9.68,3.58,14.52,5.37,1.8.67,3.74,1.63,3,3.86-.86,2.58-3.13,1.91-5.07,1.24-5.34-1.86-10.91-3.27-15.92-5.79-5.22-2.62-8.69-1.42-12.17,2.7s-3.26,5.51,1.82,7.31c13.65,4.82,27.41,9.34,40.93,14.51,4.93,1.89,8.08.85,11.43-2.75Q226,214.57,260.58,178c4.44-4.67,6-9.69,5.25-16.25-.8-7.38-.39-14.8.2-22.21.21-2.62-1.67-7.52,2.76-7.6s2.51,4.48,2.93,7.16c.22,1.43-.52,3.49.93,4.09,1.84.76,2.78-1.36,3.85-2.5C286.73,129.66,296.88,118.66,307.14,107.76Zm-172.53,56c1-1.06,2.37-2.28,1.24-3.87s-2.65-.65-4-.13c-8.42,3.07-16.79,6.29-25.3,9.11C93.87,173,90.49,177.58,90.91,191v7.48a5.35,5.35,0,0,0,3.32,5.15c2.18.93,3.69-.56,5.09-2.07q8.49-9.12,17-18.18c1-1,1.84-2.06,1.71-3.45-.32-3.54,1-5.37,4.73-5.18,1.22.07,2.13-.81,3-1.67C128.66,170,131.68,166.89,134.61,163.71Z" transform="translate(-0.25 -0.25)"/></g></g></svg>